<svg id="svg" version="1.1" width="400" height="400" viewBox="0 0 400 400" xmlns="http://www.w3.org/2000/svg" xmlns:xlink="http://www.w3.org/1999/xlink"><g id="svgg"><path id="path0" d="M157.267 75.983 C 138.975 78.014,124.164 91.776,121.050 109.636 C 118.272 125.564,125.959 147.708,141.310 168.005 L 142.804 169.981 143.749 168.643 C 144.665 167.345,147.587 165.550,148.784 165.550 C 149.489 165.550,149.502 165.577,147.183 162.300 C 131.945 140.770,126.009 121.962,129.842 107.346 C 133.486 93.446,147.138 83.573,162.713 83.573 C 163.274 83.573,163.317 83.286,163.317 79.585 L 163.317 75.598 161.643 75.641 C 160.722 75.664,158.752 75.818,157.267 75.983 M235.475 79.079 C 235.511 80.937,235.435 82.758,235.307 83.128 C 235.080 83.782,235.180 83.804,239.148 83.981 C 255.284 84.698,267.400 96.108,269.541 112.600 C 271.217 125.516,263.875 145.308,250.838 163.018 C 249.250 165.175,249.150 165.548,250.159 165.555 C 251.411 165.565,253.392 166.940,254.386 168.489 C 255.637 170.440,255.427 170.549,258.347 166.427 C 281.502 133.744,284.236 106.026,266.122 87.623 C 258.955 80.343,246.822 75.291,237.327 75.633 L 235.410 75.703 235.475 79.079 M183.732 82.780 C 183.732 84.523,182.925 86.206,181.375 87.695 L 180.237 88.788 182.383 90.206 C 185.510 92.272,190.870 97.907,192.954 101.321 C 195.777 105.944,196.178 106.469,197.284 106.994 C 199.847 108.210,201.886 107.313,203.623 104.206 C 206.197 99.603,210.954 94.142,215.550 90.512 C 217.783 88.748,217.809 88.696,216.871 87.848 C 215.744 86.830,214.673 84.363,214.673 82.786 C 214.673 80.929,214.492 80.951,211.376 83.174 C 208.039 85.554,204.524 89.066,201.793 92.748 C 199.215 96.224,199.440 96.155,197.954 93.917 C 195.531 90.268,188.327 83.700,184.680 81.814 L 183.732 81.323 183.732 82.780 M148.325 168.276 C 145.925 169.349,144.553 171.541,144.952 173.666 C 145.358 175.831,158.420 190.345,166.382 197.479 C 173.101 203.498,175.614 205.424,183.129 210.315 C 191.897 216.021,194.932 221.989,195.567 234.769 C 196.505 253.661,201.378 263.812,212.759 270.579 C 236.298 284.574,263.749 268.917,263.799 241.467 C 263.806 237.697,263.851 237.570,265.368 237.051 C 280.295 231.939,276.915 209.065,261.085 208.066 C 243.782 206.974,238.994 231.215,255.308 237.313 L 256.230 237.658 256.006 241.556 C 255.071 257.862,245.645 267.581,230.730 267.617 C 213.510 267.659,202.612 253.178,203.609 231.579 C 204.111 220.707,207.145 216.040,218.820 208.179 C 229.379 201.070,241.331 189.698,251.497 177.089 C 254.496 173.369,254.281 170.444,250.868 168.511 C 248.450 167.141,246.477 167.686,244.661 170.224 C 239.745 177.092,227.591 189.942,221.212 195.015 C 207.231 206.132,200.852 208.069,191.069 204.165 C 182.943 200.923,167.925 187.561,156.702 173.588 C 152.037 167.780,150.962 167.098,148.325 168.276 M263.592 213.408 C 271.755 216.462,272.393 228.255,264.602 232.067 C 260.808 233.923,256.449 233.327,253.392 230.533 C 245.181 223.028,253.222 209.528,263.592 213.408 M262.839 303.987 L 262.839 314.514 265.072 314.514 L 267.305 314.514 267.305 303.987 L 267.305 293.461 265.072 293.461 L 262.839 293.461 262.839 303.987 M282.935 303.987 L 282.935 314.514 285.167 314.514 L 287.400 314.514 287.400 309.697 L 287.400 304.880 288.485 303.796 C 289.866 302.415,291.660 302.291,293.044 303.480 L 293.939 304.249 294.041 309.382 L 294.143 314.514 296.333 314.514 L 298.523 314.514 298.545 309.911 C 298.557 307.379,298.409 304.569,298.215 303.666 C 297.274 299.276,292.177 297.514,288.278 300.230 L 287.400 300.841 287.400 297.151 L 287.400 293.461 285.167 293.461 L 282.935 293.461 282.935 303.987 M112.384 294.537 C 108.145 295.929,106.293 299.687,108.187 303.056 C 109.022 304.542,110.304 305.195,114.659 306.353 C 118.078 307.262,118.979 307.810,118.979 308.981 C 118.979 311.488,114.095 312.093,110.237 310.063 L 108.541 309.171 107.859 310.575 C 106.917 312.513,106.978 312.755,108.599 313.517 C 115.622 316.818,123.445 314.181,123.445 308.513 C 123.445 305.449,121.993 304.221,116.660 302.773 C 111.955 301.496,110.884 300.325,112.786 298.540 C 113.917 297.479,117.435 297.451,119.713 298.486 L 121.244 299.181 121.879 297.700 C 122.228 296.886,122.447 296.047,122.366 295.836 C 121.891 294.598,114.950 293.695,112.384 294.537 M206.335 295.455 C 206.272 296.025,206.268 300.546,206.326 305.502 L 206.432 314.514 208.639 314.514 L 210.845 314.514 210.845 310.367 L 210.845 306.220 215.311 306.220 L 219.777 306.220 219.777 310.367 L 219.777 314.514 222.174 314.514 L 224.570 314.514 224.486 304.545 L 224.402 294.577 222.169 294.577 L 219.936 294.577 219.847 298.485 L 219.757 302.392 215.301 302.392 L 210.845 302.392 210.845 298.405 L 210.845 294.418 208.647 294.418 L 206.449 294.418 206.335 295.455 M186.603 297.593 L 186.603 299.522 185.327 299.522 C 183.292 299.522,183.441 302.530,185.487 302.762 L 186.443 302.871 186.603 307.337 C 186.786 312.462,187.170 313.395,189.476 314.318 C 191.409 315.091,195.112 314.817,195.706 313.856 C 196.087 313.239,194.845 310.634,194.289 310.887 C 191.609 312.104,190.759 310.882,190.987 306.140 L 191.152 302.711 192.945 302.712 L 194.737 302.712 194.699 301.196 L 194.661 299.681 192.865 299.585 L 191.069 299.490 191.029 298.070 C 191.007 297.289,190.971 296.471,190.949 296.252 C 190.922 295.987,190.188 295.822,188.756 295.759 L 186.603 295.665 186.603 297.593 M271.770 297.608 L 271.770 299.522 270.494 299.522 L 269.219 299.522 269.219 301.097 L 269.219 302.673 270.415 302.772 L 271.611 302.871 271.770 307.352 C 271.980 313.249,273.091 314.805,277.107 314.826 C 278.236 314.831,281.021 314.036,281.021 313.708 C 281.021 312.653,279.667 310.705,279.133 310.991 C 276.757 312.263,275.865 310.944,275.986 306.339 L 276.077 302.871 277.911 302.775 L 279.745 302.679 279.745 301.101 L 279.745 299.522 277.831 299.522 L 275.917 299.522 275.917 297.608 L 275.917 295.694 273.844 295.694 L 271.770 295.694 271.770 297.608 M133.267 299.199 C 132.792 299.342,131.966 299.770,131.433 300.150 L 130.463 300.841 130.463 300.022 C 130.463 299.226,130.403 299.203,128.389 299.203 L 126.316 299.203 126.316 306.858 L 126.316 314.514 128.389 314.514 L 130.463 314.514 130.463 310.197 C 130.463 304.304,131.217 302.711,134.007 302.711 C 136.452 302.711,136.669 303.219,136.784 309.222 L 136.885 314.514 139.096 314.514 L 141.308 314.514 141.308 309.858 C 141.308 304.022,141.928 302.711,144.693 302.711 C 147.095 302.711,147.687 304.160,147.687 310.038 L 147.687 314.514 149.761 314.514 L 151.834 314.514 151.834 308.999 C 151.834 303.914,151.778 303.374,151.116 302.064 C 149.418 298.702,145.188 297.922,141.633 300.315 C 140.069 301.367,140.069 301.367,139.492 300.718 C 138.172 299.233,135.399 298.556,133.267 299.199 M158.929 299.357 C 157.407 299.785,155.662 300.666,155.662 301.006 C 155.662 301.241,156.945 303.668,157.069 303.668 C 157.134 303.668,157.813 303.384,158.578 303.037 C 161.451 301.734,164.912 302.704,164.912 304.813 C 164.912 305.562,164.846 305.582,162.342 305.582 C 156.330 305.582,153.625 307.974,155.197 311.902 C 156.383 314.866,161.630 315.892,164.265 313.675 C 164.796 313.228,165.249 312.946,165.271 313.050 C 165.293 313.153,165.347 313.381,165.391 313.557 C 165.435 313.732,165.488 314.019,165.510 314.195 C 165.532 314.370,166.411 314.514,167.464 314.514 L 169.378 314.514 169.364 309.330 C 169.349 303.947,169.070 302.375,167.893 301.049 C 166.352 299.313,162.006 298.493,158.929 299.357 M180.078 299.391 C 179.384 299.645,178.487 300.162,178.084 300.540 L 177.352 301.228 177.352 300.215 L 177.352 299.203 175.279 299.203 L 173.206 299.203 173.206 306.858 L 173.206 314.514 175.416 314.514 L 177.625 314.514 177.728 309.702 L 177.831 304.890 178.847 303.983 C 179.495 303.405,180.392 302.996,181.319 302.857 L 182.775 302.639 182.775 300.761 C 182.775 298.627,182.519 298.497,180.078 299.391 M233.652 299.165 C 225.898 301.192,225.424 312.105,232.993 314.363 C 235.952 315.246,239.636 314.721,241.599 313.136 L 242.529 312.385 241.407 311.161 L 240.286 309.938 239.164 310.631 C 237.046 311.940,233.614 311.413,232.424 309.597 C 231.485 308.164,231.591 308.134,237.640 308.134 L 243.381 308.134 243.381 306.656 C 243.381 301.518,238.633 297.862,233.652 299.165 M249.357 299.211 C 247.857 299.589,245.533 300.757,245.690 301.054 C 245.754 301.176,246.053 301.814,246.353 302.472 C 246.994 303.877,246.793 303.825,248.530 303.037 C 251.615 301.637,254.864 302.606,254.864 304.924 C 254.864 305.419,254.449 305.512,251.571 305.659 C 246.469 305.919,244.808 307.135,245.044 310.435 C 245.317 314.252,249.747 316.079,253.774 314.036 C 255.656 313.082,255.502 313.096,255.502 313.876 C 255.502 314.443,255.715 314.514,257.416 314.514 L 259.330 314.514 259.323 309.171 C 259.314 302.300,258.809 300.976,255.706 299.679 C 254.201 299.050,250.949 298.810,249.357 299.211 M238.302 303.325 C 240.188 305.210,239.737 305.582,235.566 305.582 C 231.367 305.582,231.097 305.362,232.982 303.477 C 234.490 301.969,236.878 301.901,238.302 303.325 M165.231 308.926 C 165.231 310.429,163.591 311.802,161.798 311.802 C 159.383 311.802,158.320 310.240,159.699 308.717 C 160.627 307.691,165.231 307.865,165.231 308.926 M255.183 308.757 C 255.183 310.588,253.618 311.962,251.531 311.962 C 249.532 311.962,248.432 310.064,249.651 308.717 C 250.464 307.818,255.183 307.852,255.183 308.757 M147.206 324.661 C 142.288 326.960,141.867 334.180,146.496 336.835 C 149.221 338.398,154.193 337.910,154.922 336.009 C 155.293 335.043,154.520 334.869,153.115 335.601 C 147.907 338.315,142.714 332.619,145.927 327.716 C 147.244 325.705,151.041 324.959,153.268 326.273 C 154.230 326.840,154.540 326.903,154.749 326.573 C 155.936 324.701,150.221 323.252,147.206 324.661 M195.597 324.617 C 191.935 326.422,193.156 330.127,197.895 331.586 C 200.869 332.501,201.045 332.597,201.570 333.594 C 202.870 336.063,197.721 337.365,194.617 335.352 C 193.825 334.839,193.318 335.142,193.306 336.136 C 193.292 337.359,199.264 338.364,201.058 337.440 C 205.286 335.263,204.192 331.760,198.785 330.158 C 195.376 329.148,194.583 328.162,195.867 326.530 C 196.919 325.193,198.365 325.103,201.790 326.159 C 202.307 326.319,202.506 326.207,202.644 325.678 C 203.024 324.226,197.942 323.461,195.597 324.617 M226.735 326.396 C 226.651 327.259,226.489 327.449,225.758 327.533 C 224.591 327.667,224.494 328.868,225.650 328.868 C 226.414 328.868,226.421 328.899,226.528 332.564 C 226.664 337.281,228.357 339.034,231.269 337.475 C 232.271 336.939,231.683 336.234,230.280 336.290 C 228.573 336.358,228.491 336.195,228.263 332.297 L 228.063 328.868 229.662 328.868 C 231.987 328.868,232.061 327.678,229.745 327.529 C 228.292 327.436,228.226 327.390,228.130 326.396 C 228.056 325.630,227.873 325.359,227.432 325.359 C 226.991 325.359,226.808 325.630,226.735 326.396 M173.272 327.605 C 172.695 327.732,171.941 328.090,171.598 328.401 C 170.996 328.946,170.973 328.942,170.973 328.279 C 170.973 327.759,170.779 327.592,170.175 327.592 L 169.378 327.592 169.378 332.695 L 169.378 337.799 170.175 337.799 C 170.967 337.799,170.973 337.778,170.973 334.918 C 170.973 330.860,172.071 328.868,174.306 328.868 C 174.803 328.868,175.013 327.742,174.561 327.502 C 174.430 327.432,173.850 327.479,173.272 327.605 M180.223 327.575 C 175.855 328.407,174.709 334.284,178.393 336.968 C 180.314 338.368,185.327 337.718,185.327 336.068 C 185.327 335.341,184.774 335.179,183.980 335.674 C 182.146 336.820,179.825 336.537,178.633 335.022 C 177.205 333.205,177.542 333.014,182.179 333.014 L 186.368 333.014 186.199 331.753 C 185.811 328.860,183.170 327.014,180.223 327.575 M218.560 327.593 C 214.825 328.460,215.080 332.553,218.909 333.183 C 221.024 333.531,222.329 334.176,222.329 334.873 C 222.329 336.218,220.400 336.738,217.865 336.077 C 216.157 335.631,215.651 335.754,215.635 336.619 C 215.625 337.130,217.886 337.799,219.623 337.799 C 224.910 337.799,225.654 333.138,220.543 332.039 C 218.142 331.523,217.544 331.216,217.544 330.501 C 217.544 329.093,219.823 328.416,221.900 329.205 C 223.146 329.679,224.044 328.630,222.892 328.046 C 221.860 327.523,219.794 327.307,218.560 327.593 M249.784 327.505 C 249.358 327.585,248.677 327.869,248.269 328.136 C 247.599 328.575,247.528 328.573,247.528 328.107 C 247.528 327.770,247.252 327.592,246.730 327.592 L 245.933 327.592 245.933 332.695 L 245.933 337.799 246.703 337.799 C 247.467 337.799,247.474 337.768,247.580 334.102 C 247.705 329.812,248.264 328.868,250.680 328.868 C 252.882 328.868,253.409 329.845,253.536 334.156 C 253.642 337.765,253.651 337.799,254.413 337.799 C 255.181 337.799,255.183 337.788,255.183 334.266 C 255.183 330.108,255.878 328.868,258.204 328.868 C 260.436 328.868,260.925 329.815,260.925 334.137 L 260.925 337.841 261.802 337.740 L 262.679 337.640 262.679 334.131 C 262.679 329.378,262.081 328.095,259.579 327.479 C 258.381 327.184,256.224 327.721,255.366 328.527 L 254.653 329.197 254.073 328.555 C 253.754 328.203,252.976 327.771,252.345 327.595 C 251.157 327.265,251.075 327.262,249.784 327.505 M158.453 328.093 C 157.520 328.599,157.434 328.788,157.843 329.433 C 158.049 329.758,158.334 329.742,159.263 329.353 C 161.665 328.350,163.658 328.973,164.087 330.861 L 164.286 331.738 162.213 331.738 C 158.260 331.738,156.426 333.207,157.252 335.712 C 157.922 337.741,161.049 338.499,163.238 337.165 C 164.271 336.534,164.274 336.534,164.274 337.166 C 164.274 337.634,164.489 337.799,165.097 337.799 L 165.920 337.799 165.815 333.625 L 165.710 329.452 164.668 328.522 C 163.449 327.433,160.096 327.202,158.453 328.093 M204.466 327.715 C 204.466 327.806,205.411 330.054,206.566 332.710 C 208.782 337.804,208.886 338.482,207.647 339.721 C 206.955 340.414,206.026 340.525,205.096 340.028 C 204.619 339.772,204.422 339.836,204.156 340.333 C 203.776 341.044,204.362 341.527,205.760 341.655 C 208.149 341.873,208.975 341.150,210.601 337.418 C 211.236 335.961,212.477 333.154,213.358 331.180 L 214.961 327.592 214.099 327.596 C 213.301 327.599,213.110 327.896,211.515 331.598 C 210.567 333.798,209.680 335.483,209.543 335.343 C 209.406 335.202,208.575 333.437,207.696 331.419 C 206.307 328.231,205.992 327.738,205.282 327.650 C 204.833 327.595,204.466 327.624,204.466 327.715 M235.484 328.228 C 231.467 330.677,232.844 337.198,237.489 337.721 C 240.149 338.021,243.003 336.807,242.125 335.750 C 241.805 335.364,241.545 335.390,240.334 335.926 C 238.508 336.733,236.864 336.466,235.647 335.163 C 233.868 333.259,234.240 333.014,238.915 333.014 L 243.062 333.014 243.062 332.026 C 243.062 328.466,238.688 326.274,235.484 328.228 M183.048 329.322 C 183.892 329.758,184.840 331.234,184.565 331.683 C 184.269 332.165,177.990 331.718,177.990 331.214 C 177.990 329.468,181.089 328.309,183.048 329.322 M240.535 329.800 C 242.220 331.485,241.905 331.738,238.118 331.738 C 236.276 331.738,234.769 331.660,234.769 331.563 C 234.769 329.127,238.669 327.934,240.535 329.800 M164.217 333.894 C 164.386 335.085,162.686 336.523,161.109 336.523 C 159.128 336.523,157.965 335.127,158.931 333.909 C 159.876 332.718,164.048 332.706,164.217 333.894 " stroke="none" fill="#1e728c" fill-rule="evenodd"></path><path id="path1" d="M0.000 200.000 L 0.000 400.000 200.000 400.000 L 400.000 400.000 400.000 200.000 L 400.000 0.000 200.000 0.000 L 0.000 0.000 0.000 200.000 M152.646 65.217 C 154.907 67.477,152.058 70.648,149.255 68.992 C 147.969 68.232,146.414 68.687,140.829 71.457 C 117.080 83.238,106.696 108.722,115.050 134.725 C 115.856 137.233,116.067 138.287,115.815 138.539 C 113.801 140.553,110.376 124.145,110.799 114.514 C 111.728 93.402,126.734 73.482,146.151 67.584 C 147.347 67.221,148.325 66.742,148.325 66.519 C 148.325 64.646,151.207 63.778,152.646 65.217 M179.259 72.669 C 182.575 75.123,182.567 84.718,179.247 86.498 C 177.287 87.549,168.135 85.980,166.462 84.307 C 164.826 82.671,164.917 76.897,166.606 75.106 C 168.685 72.902,177.325 71.237,179.259 72.669 M225.837 72.820 C 232.893 74.407,233.322 74.841,233.125 80.181 C 232.991 83.826,232.485 84.586,229.680 85.351 C 228.707 85.616,226.514 86.269,224.808 86.803 C 221.190 87.934,220.292 87.812,218.478 85.942 L 217.384 84.815 217.283 80.126 C 217.119 72.572,218.707 71.216,225.837 72.820 M163.444 79.665 L 163.411 83.732 160.308 83.956 C 150.926 84.631,143.724 87.845,137.746 94.024 C 123.320 108.934,126.285 131.411,146.603 161.159 L 149.594 165.540 148.721 165.750 C 146.898 166.189,144.777 167.511,143.929 168.739 C 142.801 170.370,142.964 170.444,140.587 167.225 C 122.654 142.939,116.210 119.019,122.982 101.876 C 129.129 86.317,144.141 75.892,160.766 75.639 L 163.477 75.598 163.444 79.665 M246.571 76.673 C 271.945 82.560,283.973 107.044,275.072 134.688 C 271.012 147.297,256.907 172.166,255.203 169.719 C 253.687 167.541,252.514 166.520,250.937 166.005 C 250.027 165.707,249.230 165.419,249.165 165.364 C 249.101 165.308,249.754 164.287,250.617 163.094 C 260.635 149.236,267.233 135.003,269.066 123.295 C 272.354 102.294,259.157 85.169,238.790 84.006 L 235.247 83.804 235.247 79.656 L 235.247 75.509 239.234 75.702 C 241.678 75.821,244.518 76.196,246.571 76.673 M214.707 81.419 C 214.725 81.639,214.715 82.212,214.683 82.694 C 214.608 83.829,215.986 86.828,217.088 87.931 L 217.949 88.792 216.718 89.771 C 211.064 94.267,207.639 98.019,204.359 103.310 C 202.020 107.083,201.381 107.608,199.163 107.575 C 196.824 107.539,196.408 107.113,192.344 100.585 C 190.642 97.851,185.129 92.263,182.333 90.439 L 179.901 88.853 181.177 87.686 C 182.676 86.316,183.715 84.216,183.725 82.536 C 183.734 81.054,183.832 81.055,186.155 82.562 C 190.786 85.565,195.041 89.559,197.942 93.625 L 199.420 95.696 201.751 92.570 C 205.780 87.168,214.554 79.617,214.707 81.419 M171.170 99.375 C 179.102 100.751,185.063 103.910,192.533 110.696 C 198.147 115.797,200.797 115.811,206.167 110.771 C 216.682 100.900,228.311 97.125,239.045 100.098 C 252.125 103.721,260.162 116.412,258.408 130.673 C 257.649 136.838,254.503 146.411,253.234 146.411 C 252.434 146.411,252.474 145.829,253.421 143.688 C 263.603 120.665,252.164 99.857,229.891 100.886 C 221.318 101.282,214.947 104.392,206.476 112.315 C 201.178 117.270,197.752 117.179,192.030 111.931 C 190.423 110.457,187.985 108.447,186.611 107.465 C 161.371 89.416,133.828 109.004,143.220 138.324 C 144.195 141.366,144.175 142.257,143.141 141.861 C 142.713 141.696,141.160 136.758,140.310 132.855 C 136.140 113.718,152.368 96.113,171.170 99.375 M240.665 113.415 C 245.461 117.797,245.882 118.440,244.767 119.672 C 243.717 120.833,242.913 120.413,238.756 116.531 C 234.638 112.685,234.294 112.117,235.407 111.005 C 236.492 109.919,237.189 110.239,240.665 113.415 M166.268 111.987 C 167.978 114.079,165.759 117.098,163.221 116.133 C 161.536 115.492,161.254 112.565,162.772 111.473 C 163.694 110.809,165.525 111.079,166.268 111.987 M237.768 117.736 C 241.610 121.427,242.394 122.488,241.281 122.488 C 240.549 122.488,232.855 115.154,232.855 114.457 C 232.855 113.299,233.822 113.944,237.768 117.736 M232.056 116.427 C 233.581 117.007,233.098 119.139,231.442 119.139 C 229.870 119.139,229.250 117.800,230.325 116.725 C 231.044 116.006,230.978 116.017,232.056 116.427 M160.421 116.986 C 161.489 117.859,161.632 119.639,160.718 120.678 C 158.986 122.649,156.300 121.760,156.300 119.216 C 156.300 116.824,158.660 115.547,160.421 116.986 M171.588 117.268 C 173.701 119.955,170.468 123.306,167.897 121.094 C 166.025 119.484,167.226 116.427,169.729 116.427 C 170.643 116.427,171.083 116.627,171.588 117.268 M236.780 122.425 C 239.137 124.797,239.431 125.359,238.312 125.359 C 237.622 125.359,233.493 121.198,233.493 120.503 C 233.493 119.455,234.291 119.922,236.780 122.425 M166.088 122.863 C 167.684 124.362,166.488 127.273,164.274 127.273 C 162.097 127.273,160.917 124.503,162.416 122.907 C 163.331 121.933,165.076 121.912,166.088 122.863 M208.735 124.749 C 210.361 126.028,210.526 126.773,210.526 132.839 L 210.526 138.437 216.284 138.437 C 225.362 138.437,225.062 138.054,224.979 149.548 C 224.900 160.537,224.800 160.696,218.182 160.356 C 216.340 160.262,213.872 160.262,212.698 160.358 L 210.564 160.531 210.465 166.524 C 210.322 175.216,210.447 175.120,199.293 175.119 C 188.352 175.118,188.491 175.230,188.411 166.396 C 188.359 160.691,188.331 160.445,187.719 160.408 C 187.368 160.387,184.599 160.342,181.565 160.308 L 176.048 160.246 175.026 159.224 L 174.003 158.202 173.916 149.675 C 173.797 137.907,173.384 138.437,182.662 138.437 L 188.567 138.437 188.462 132.616 C 188.304 123.821,187.923 124.114,199.558 124.096 C 207.533 124.083,207.925 124.111,208.735 124.749 M192.344 135.054 L 192.344 142.265 185.407 142.303 C 181.591 142.323,178.361 142.323,178.230 142.303 C 178.098 142.282,177.990 145.423,177.990 149.282 L 177.990 156.300 185.167 156.300 L 192.344 156.300 192.344 163.477 L 192.344 170.654 199.362 170.654 L 206.380 170.654 206.380 163.477 L 206.380 156.300 213.716 156.300 L 221.053 156.300 221.053 149.282 L 221.053 142.265 213.716 142.265 L 206.380 142.265 206.380 135.247 L 206.380 128.230 199.867 128.230 C 196.284 128.230,193.127 128.143,192.849 128.036 C 192.398 127.863,192.344 128.609,192.344 135.054 M150.718 153.168 C 162.414 170.796,185.815 194.158,194.959 197.335 C 197.701 198.288,201.832 198.139,204.589 196.987 C 214.095 193.017,235.210 171.711,246.890 154.305 C 248.604 151.750,249.807 150.260,250.159 150.252 C 253.024 150.187,239.136 168.132,226.013 181.452 C 204.878 202.904,198.012 204.190,181.499 189.793 C 167.837 177.882,147.049 153.449,147.049 149.304 C 147.049 147.988,147.819 148.798,150.718 153.168 M161.105 151.845 C 162.390 152.533,161.738 155.024,160.273 155.024 C 158.583 155.024,157.991 152.682,159.490 151.927 C 160.458 151.438,160.354 151.443,161.105 151.845 M240.328 152.016 C 241.366 153.054,240.621 155.024,239.191 155.024 C 237.963 155.024,237.321 154.423,237.321 153.274 C 237.321 151.655,239.186 150.875,240.328 152.016 M165.994 159.569 C 169.534 164.879,177.286 172.969,187.719 182.243 C 188.908 183.299,188.959 183.413,188.468 183.911 C 187.975 184.410,187.656 184.184,183.683 180.526 C 175.183 172.701,168.938 165.999,163.862 159.254 C 163.472 158.736,163.809 157.895,164.407 157.895 C 164.666 157.895,165.381 158.648,165.994 159.569 M235.086 158.631 C 235.085 159.128,231.212 163.962,227.187 168.493 C 222.428 173.848,211.740 184.051,210.888 184.051 C 209.956 184.051,210.602 182.529,212.041 181.334 C 217.832 176.530,225.775 168.363,231.427 161.404 C 234.336 157.821,235.091 157.249,235.086 158.631 M152.179 168.116 C 152.521 168.299,153.905 169.842,155.253 171.545 C 172.052 192.756,188.775 205.742,199.293 205.742 C 209.059 205.742,225.042 193.962,239.976 175.758 C 247.110 167.061,246.342 167.783,248.463 167.783 C 253.433 167.783,255.372 172.521,252.080 176.620 C 241.277 190.071,229.777 200.978,217.949 208.989 C 206.560 216.703,203.846 221.487,203.833 233.868 C 203.815 251.771,210.843 263.238,223.860 266.539 C 241.346 270.975,255.821 259.344,255.821 240.859 L 255.821 237.782 253.817 236.908 C 240.428 231.076,243.021 210.640,257.471 208.103 C 274.785 205.063,282.370 229.057,266.507 236.688 C 265.279 237.279,264.236 237.785,264.190 237.812 C 264.143 237.839,263.966 240.288,263.797 243.253 C 262.193 271.294,234.081 285.188,210.756 269.467 C 201.065 262.936,196.353 252.642,195.530 236.204 C 194.777 221.179,192.347 216.629,181.056 209.114 C 170.045 201.785,160.791 193.298,149.728 180.383 C 144.890 174.735,144.817 174.624,144.817 172.959 C 144.817 169.356,149.159 166.500,152.179 168.116 M133.698 171.372 C 142.400 184.265,162.841 206.305,165.671 205.846 C 168.054 205.459,169.680 208.575,167.945 210.205 C 166.241 211.806,163.636 210.620,163.636 208.244 C 163.636 207.200,163.425 206.841,162.121 205.670 C 152.282 196.836,131.134 172.362,131.105 169.777 C 131.093 168.677,132.437 169.504,133.698 171.372 M206.572 186.975 C 206.848 187.422,205.191 188.832,204.386 188.834 C 203.584 188.836,203.683 187.698,204.537 187.099 C 205.377 186.511,206.252 186.457,206.572 186.975 M265.869 202.086 C 284.551 206.954,287.499 233.508,270.335 242.317 C 266.172 244.453,266.348 244.481,266.348 241.677 L 266.348 239.292 268.660 238.014 C 283.851 229.621,277.784 205.742,260.462 205.742 C 242.214 205.742,235.762 229.734,251.750 238.135 L 253.977 239.306 253.848 241.331 C 253.658 244.326,252.955 244.281,247.947 240.956 C 227.620 227.455,242.165 195.909,265.869 202.086 M258.083 213.092 C 249.064 214.949,247.223 227.779,255.400 231.780 C 263.151 235.573,271.812 228.891,269.721 220.731 C 268.338 215.329,263.293 212.019,258.083 213.092 M263.330 215.910 C 267.283 217.706,268.885 222.089,267.026 226.020 C 264.354 231.667,257.373 232.202,253.668 227.044 C 249.317 220.987,256.438 212.780,263.330 215.910 M267.464 303.987 L 267.464 314.673 265.152 314.767 L 262.839 314.860 262.839 303.987 L 262.839 293.114 265.152 293.208 L 267.464 293.301 267.464 303.987 M287.400 296.824 L 287.400 300.505 288.784 299.694 C 291.249 298.250,295.266 298.737,297.037 300.695 C 298.331 302.126,298.565 303.434,298.565 309.254 L 298.565 314.860 296.252 314.767 L 293.939 314.673 293.780 309.497 C 293.599 303.615,293.350 303.000,291.126 302.937 C 288.178 302.854,287.400 304.442,287.400 310.547 L 287.400 314.860 285.088 314.767 L 282.775 314.673 282.691 304.309 C 282.591 292.042,282.348 293.142,285.157 293.142 L 287.400 293.142 287.400 296.824 M120.108 294.563 C 122.820 295.369,122.957 295.568,122.140 297.533 C 121.339 299.460,121.537 299.386,119.375 298.564 C 116.729 297.559,113.347 297.779,112.525 299.011 C 111.514 300.525,112.641 301.513,116.497 302.490 C 121.442 303.744,123.123 304.975,123.638 307.722 C 124.541 312.533,118.922 316.052,112.281 314.836 C 110.089 314.435,106.858 313.082,106.858 312.566 C 106.858 311.828,108.521 309.051,108.871 309.205 C 114.548 311.708,118.354 311.700,118.599 309.183 C 118.727 307.871,118.042 307.428,114.514 306.537 C 109.648 305.310,107.770 304.018,107.314 301.586 C 106.258 295.958,112.769 292.384,120.108 294.563 M211.015 295.375 C 211.032 295.813,211.073 297.500,211.105 299.123 L 211.164 302.073 215.470 302.073 L 219.777 302.073 219.777 298.246 L 219.777 294.418 222.169 294.418 L 224.561 294.418 224.561 304.625 L 224.561 314.833 222.178 314.833 L 219.795 314.833 219.706 310.606 L 219.617 306.380 215.400 306.291 L 211.183 306.202 211.094 310.437 L 211.005 314.673 208.533 314.766 L 206.061 314.859 206.061 304.625 L 206.061 294.391 208.522 294.484 C 210.900 294.574,210.985 294.604,211.015 295.375 M191.004 297.353 L 191.099 299.172 192.918 299.267 L 194.737 299.362 194.833 301.196 L 194.928 303.030 192.998 303.030 L 191.069 303.030 191.069 306.660 C 191.069 310.918,191.229 311.201,193.479 310.892 L 194.923 310.694 195.547 312.152 C 196.319 313.952,196.340 313.774,195.295 314.308 C 191.930 316.031,187.483 314.511,186.602 311.338 C 186.429 310.716,186.287 308.593,186.286 306.619 L 186.284 303.030 185.167 303.030 L 184.051 303.030 184.051 301.116 L 184.051 299.203 185.167 299.203 L 186.284 299.203 186.284 297.501 C 186.284 295.354,186.313 295.330,188.822 295.441 L 190.909 295.534 191.004 297.353 M276.172 297.353 L 276.267 299.172 278.086 299.267 L 279.904 299.362 279.904 301.116 L 279.904 302.871 278.070 302.966 L 276.236 303.062 276.236 306.675 C 276.236 310.903,276.403 311.200,278.610 310.897 L 280.018 310.704 280.561 312.127 C 281.428 314.397,279.109 315.675,275.635 314.841 C 272.380 314.061,271.456 312.243,271.453 306.619 L 271.451 303.030 270.319 303.030 L 269.187 303.030 269.282 301.196 C 269.377 299.383,269.390 299.361,270.415 299.262 C 271.440 299.163,271.451 299.144,271.451 297.481 C 271.451 295.356,271.484 295.330,273.990 295.441 L 276.077 295.534 276.172 297.353 M137.105 299.050 C 137.688 299.167,138.663 299.700,139.271 300.234 L 140.376 301.204 141.081 300.560 C 144.188 297.720,149.502 298.422,151.327 301.914 C 151.931 303.071,151.994 303.726,151.994 308.931 L 151.994 314.673 149.681 314.767 L 147.368 314.860 147.368 309.761 C 147.368 303.840,147.033 302.967,144.765 302.967 C 141.905 302.967,141.308 304.243,141.308 310.357 L 141.308 314.833 139.102 314.833 L 136.897 314.833 136.790 309.602 C 136.695 304.997,136.610 304.292,136.075 303.701 C 135.194 302.729,133.023 302.779,131.836 303.799 L 130.941 304.568 130.781 309.621 L 130.622 314.673 128.304 314.767 L 125.986 314.861 126.071 306.952 L 126.156 299.043 128.309 298.949 C 130.428 298.856,130.463 298.867,130.463 299.666 C 130.463 300.653,130.558 300.663,131.734 299.793 C 132.659 299.109,134.659 298.560,135.566 298.741 C 135.829 298.793,136.522 298.932,137.105 299.050 M182.775 300.976 L 182.775 303.030 181.706 303.030 C 178.732 303.030,177.715 304.992,177.689 310.780 L 177.671 314.860 175.359 314.767 L 173.046 314.673 173.046 306.858 L 173.046 299.043 175.199 298.949 L 177.352 298.854 177.352 299.875 C 177.352 300.821,177.394 300.860,177.911 300.409 C 179.083 299.387,181.822 298.433,182.536 298.799 C 182.667 298.866,182.775 299.846,182.775 300.976 M166.232 299.776 C 169.178 301.314,169.537 302.325,169.537 309.091 L 169.537 314.673 167.384 314.767 C 165.272 314.860,165.231 314.847,165.231 314.059 L 165.231 313.257 164.126 314.007 C 160.420 316.522,155.066 314.501,154.775 310.478 C 154.528 307.067,156.266 305.755,161.497 305.405 C 165.235 305.154,165.287 305.120,164.086 303.693 C 163.067 302.481,160.533 302.324,158.308 303.334 L 156.967 303.943 156.155 302.489 C 155.438 301.206,155.174 300.482,155.423 300.477 C 155.467 300.476,156.364 300.121,157.416 299.687 C 160.262 298.515,163.884 298.552,166.232 299.776 M239.465 299.697 C 242.068 300.994,243.700 303.707,243.700 306.739 L 243.700 308.134 242.344 308.165 C 241.599 308.181,239.015 308.169,236.603 308.138 C 231.821 308.075,231.571 308.184,232.833 309.788 C 234.071 311.362,236.523 311.673,238.760 310.540 L 240.307 309.757 241.357 310.939 C 242.735 312.491,242.616 312.878,240.412 314.005 C 235.969 316.277,230.290 314.701,228.263 310.632 C 224.722 303.526,232.301 296.127,239.465 299.697 M256.300 299.710 C 257.093 300.125,257.938 300.959,258.533 301.917 L 259.490 303.457 259.490 309.065 L 259.490 314.673 257.337 314.767 C 255.224 314.860,255.183 314.847,255.183 314.059 L 255.183 313.257 254.047 314.028 C 249.933 316.820,243.947 313.773,244.784 309.314 C 245.289 306.620,246.700 305.800,251.193 305.588 C 255.121 305.403,255.629 305.041,254.103 303.516 C 253.050 302.463,250.224 302.381,248.325 303.349 C 247.637 303.700,247.035 303.987,246.987 303.987 C 246.554 303.987,245.375 300.809,245.707 300.534 C 247.773 298.819,253.712 298.357,256.300 299.710 M233.917 302.857 C 232.906 303.297,232.217 304.181,232.217 305.038 C 232.217 305.408,232.857 305.479,235.646 305.421 C 238.812 305.355,239.067 305.303,238.965 304.748 C 238.627 302.899,236.044 301.932,233.917 302.857 M160.447 308.355 C 158.336 309.109,159.213 311.643,161.584 311.643 C 163.557 311.643,164.884 310.591,164.902 309.011 C 164.912 308.133,162.189 307.733,160.447 308.355 M250.399 308.545 C 249.501 308.996,249.161 310.441,249.777 311.184 C 251.053 312.721,254.864 311.164,254.864 309.105 C 254.864 308.008,252.144 307.666,250.399 308.545 M152.551 324.100 C 154.448 324.626,155.645 325.812,154.971 326.497 C 154.472 327.004,154.354 326.995,153.036 326.357 C 146.951 323.412,142.079 331.346,147.491 335.387 C 148.771 336.342,152.049 336.318,153.368 335.343 L 154.316 334.642 154.908 335.295 C 156.770 337.353,150.146 338.909,146.809 337.198 C 139.224 333.308,144.269 321.800,152.551 324.100 M201.379 324.272 C 202.938 324.804,203.079 325.012,202.550 326.001 C 202.253 326.554,202.144 326.565,201.125 326.139 C 198.498 325.042,195.534 325.817,195.534 327.602 C 195.534 328.769,196.224 329.231,199.336 330.145 C 203.152 331.266,204.407 333.223,203.025 335.896 C 201.455 338.932,191.930 338.543,193.317 335.499 L 193.699 334.661 194.970 335.323 C 197.589 336.688,201.069 336.344,201.486 334.679 C 201.810 333.388,201.246 332.916,198.107 331.858 C 194.426 330.618,193.514 329.805,193.514 327.764 C 193.514 324.549,197.282 322.877,201.379 324.272 M228.328 326.219 C 228.422 327.192,228.497 327.244,229.923 327.336 C 232.150 327.479,232.135 328.662,229.904 328.805 L 228.389 328.903 228.389 331.936 C 228.389 335.772,228.637 336.289,230.407 336.149 C 232.186 336.009,232.439 337.415,230.723 337.907 C 227.675 338.781,226.475 337.269,226.475 332.550 L 226.475 328.868 225.518 328.868 C 224.710 328.868,224.561 328.744,224.561 328.070 C 224.561 327.397,224.710 327.273,225.518 327.273 C 226.356 327.273,226.475 327.160,226.475 326.369 C 226.475 324.613,228.160 324.477,228.328 326.219 M164.518 328.121 C 165.816 329.085,166.243 330.762,166.128 334.450 L 166.029 337.640 164.992 337.740 C 164.186 337.817,163.955 337.718,163.955 337.291 C 163.955 336.794,163.903 336.789,163.397 337.236 C 161.303 339.083,156.938 337.598,156.938 335.038 C 156.938 332.668,158.282 331.738,161.707 331.738 C 164.156 331.738,164.503 331.387,163.486 329.934 C 162.734 328.861,161.512 328.795,158.640 329.674 C 158.129 329.830,157.855 329.708,157.587 329.208 C 156.687 327.525,162.488 326.615,164.518 328.121 M171.282 327.990 C 171.441 328.385,171.580 328.543,171.591 328.341 C 171.613 327.942,173.255 327.273,174.210 327.273 C 174.654 327.273,174.801 327.511,174.801 328.230 C 174.801 329.032,174.675 329.187,174.021 329.187 C 172.094 329.187,171.462 330.386,171.343 334.262 L 171.235 337.799 170.204 337.799 L 169.173 337.799 169.223 333.094 C 169.251 330.506,169.298 328.138,169.326 327.831 C 169.406 326.973,170.923 327.096,171.282 327.990 M183.902 328.059 C 185.417 328.947,186.284 330.449,186.284 332.185 L 186.284 333.333 182.154 333.333 L 178.024 333.333 178.361 334.300 C 178.995 336.119,181.999 336.817,183.873 335.581 C 184.872 334.923,186.035 335.636,185.466 336.557 C 184.087 338.788,178.784 338.341,177.002 335.843 C 173.701 331.214,179.029 325.204,183.902 328.059 M207.764 331.154 C 208.669 333.200,209.492 334.957,209.592 335.057 C 209.692 335.157,210.468 333.626,211.316 331.655 C 213.127 327.444,213.241 327.273,214.234 327.273 C 215.284 327.273,215.312 327.177,212.258 334.044 C 208.913 341.567,208.045 342.544,205.345 341.824 C 203.030 341.207,203.363 339.765,205.805 339.829 C 207.333 339.869,207.486 339.802,208.053 338.844 L 208.661 337.816 206.442 332.784 C 204.109 327.494,204.044 327.177,205.322 327.334 C 206.005 327.418,206.352 327.961,207.764 331.154 M222.498 327.735 C 223.658 328.220,223.775 328.423,223.313 329.153 C 223.080 329.521,222.769 329.532,221.520 329.217 C 219.785 328.780,218.318 329.000,217.892 329.762 C 217.360 330.712,218.076 331.366,220.075 331.760 C 226.004 332.926,225.524 337.984,219.487 337.945 C 217.515 337.932,215.294 337.212,215.321 336.595 C 215.364 335.613,216.199 335.251,217.331 335.724 C 219.604 336.674,222.010 336.238,222.010 334.876 C 222.010 334.174,221.401 333.865,219.011 333.352 C 216.000 332.705,214.797 330.836,216.149 328.906 C 217.221 327.376,220.286 326.811,222.498 327.735 M240.833 327.990 C 242.402 329.058,243.080 330.156,243.155 331.752 L 243.222 333.174 239.155 333.263 C 234.699 333.361,234.440 333.502,235.806 335.090 C 236.788 336.231,238.805 336.495,240.546 335.710 C 242.531 334.814,243.115 335.979,241.344 337.301 C 239.051 339.013,234.806 337.801,233.477 335.055 C 231.185 330.320,236.606 325.114,240.833 327.990 M247.528 327.960 C 247.528 328.632,247.543 328.634,248.178 328.059 C 249.270 327.071,252.211 327.037,253.616 327.996 L 254.759 328.777 255.659 328.121 C 257.054 327.106,259.870 327.007,261.043 327.933 C 262.477 329.064,262.839 330.343,262.839 334.280 L 262.839 337.799 261.882 337.799 L 260.925 337.799 260.925 334.465 C 260.925 330.615,260.604 329.660,259.151 329.180 C 256.413 328.277,255.183 330.024,255.183 334.816 L 255.183 337.799 254.253 337.799 L 253.323 337.799 253.217 333.982 C 253.098 329.718,252.908 329.295,250.979 328.982 C 250.030 328.828,249.675 328.953,248.774 329.758 L 247.700 330.718 247.579 334.259 L 247.457 337.799 246.536 337.799 L 245.614 337.799 245.614 332.536 L 245.614 327.273 246.571 327.273 C 247.338 327.273,247.528 327.409,247.528 327.960 M179.329 329.661 C 177.315 331.356,177.661 331.738,181.210 331.738 C 184.460 331.738,184.680 331.638,184.042 330.445 C 183.193 328.858,180.763 328.454,179.329 329.661 M236.796 329.184 C 236.045 329.487,235.088 330.690,235.088 331.331 C 235.088 331.634,235.896 331.738,238.248 331.738 C 241.257 331.738,241.400 331.708,241.240 331.097 C 240.814 329.470,238.527 328.485,236.796 329.184 M159.234 333.716 C 158.690 334.261,158.761 335.413,159.371 335.919 C 160.766 337.077,163.955 335.794,163.955 334.075 C 163.955 333.225,160.025 332.926,159.234 333.716 " stroke="none" fill="#fbfbfb" fill-rule="evenodd"></path><path id="path2" d="M158.293 75.818 C 158.600 75.898,159.103 75.898,159.410 75.818 C 159.717 75.738,159.466 75.672,158.852 75.672 C 158.238 75.672,157.986 75.738,158.293 75.818 M165.330 78.947 C 165.332 80.000,165.391 80.392,165.462 79.819 C 165.533 79.246,165.532 78.384,165.459 77.905 C 165.386 77.426,165.328 77.895,165.330 78.947 M235.481 80.383 C 235.481 80.997,235.546 81.248,235.627 80.941 C 235.707 80.634,235.707 80.132,235.627 79.825 C 235.546 79.518,235.481 79.769,235.481 80.383 M163.343 82.837 C 163.321 83.422,163.097 83.556,161.962 83.658 L 160.606 83.780 161.972 83.836 C 163.357 83.892,163.894 83.448,163.532 82.546 C 163.442 82.321,163.356 82.452,163.343 82.837 M263.796 85.267 C 263.796 85.322,264.262 85.789,264.833 86.304 L 265.869 87.241 264.932 86.204 C 264.059 85.238,263.796 85.021,263.796 85.267 M132.208 87.799 L 129.984 90.112 132.297 87.887 C 134.445 85.821,134.755 85.486,134.521 85.486 C 134.472 85.486,133.432 86.527,132.208 87.799 M146.332 87.264 C 145.095 87.935,145.235 88.166,146.491 87.527 C 147.694 86.916,147.906 86.757,147.501 86.775 C 147.341 86.782,146.814 87.002,146.332 87.264 M193.620 88.836 C 194.751 89.976,195.747 90.909,195.835 90.909 C 195.923 90.909,195.070 89.976,193.939 88.836 C 192.809 87.695,191.813 86.762,191.725 86.762 C 191.637 86.762,192.490 87.695,193.620 88.836 M251.063 86.883 C 251.390 87.178,253.907 88.354,253.907 88.211 C 253.907 88.029,251.500 86.762,251.156 86.762 C 251.032 86.762,250.990 86.816,251.063 86.883 M266.986 88.517 C 267.581 89.131,268.140 89.633,268.227 89.633 C 268.315 89.633,267.900 89.131,267.305 88.517 C 266.709 87.903,266.151 87.400,266.063 87.400 C 265.975 87.400,266.390 87.903,266.986 88.517 M180.406 88.332 C 179.876 88.918,179.884 88.960,180.596 89.306 C 181.252 89.626,181.275 89.616,180.795 89.227 C 180.286 88.814,180.286 88.751,180.784 88.252 C 181.077 87.959,181.237 87.719,181.139 87.719 C 181.040 87.719,180.711 87.995,180.406 88.332 M143.136 89.166 C 142.481 89.611,141.946 90.044,141.946 90.128 C 141.946 90.212,142.520 89.900,143.222 89.436 C 144.336 88.698,144.713 88.357,144.412 88.357 C 144.365 88.357,143.791 88.721,143.136 89.166 M213.856 91.946 L 212.919 92.982 213.955 92.046 C 214.526 91.530,214.992 91.064,214.992 91.009 C 214.992 90.762,214.729 90.979,213.856 91.946 M138.109 93.381 L 136.045 95.534 138.198 93.470 C 139.382 92.335,140.351 91.366,140.351 91.317 C 140.351 91.082,140.026 91.381,138.109 93.381 M259.968 92.982 C 260.921 93.947,261.772 94.737,261.860 94.737 C 261.948 94.737,261.240 93.947,260.287 92.982 C 259.334 92.018,258.483 91.228,258.395 91.228 C 258.307 91.228,259.015 92.018,259.968 92.982 M187.081 94.418 C 188.300 95.646,189.369 96.651,189.457 96.651 C 189.544 96.651,188.619 95.646,187.400 94.418 C 186.182 93.190,185.113 92.185,185.025 92.185 C 184.937 92.185,185.863 93.190,187.081 94.418 M165.479 99.118 C 166.229 99.185,167.378 99.184,168.031 99.115 C 168.684 99.047,168.070 98.992,166.667 98.993 C 165.263 98.994,164.729 99.050,165.479 99.118 M228.313 99.428 C 228.710 99.504,229.284 99.502,229.589 99.422 C 229.894 99.342,229.569 99.279,228.868 99.283 C 228.166 99.287,227.916 99.352,228.313 99.428 M230.223 100.712 C 230.969 100.779,232.189 100.779,232.935 100.712 C 233.680 100.645,233.070 100.590,231.579 100.590 C 230.088 100.590,229.478 100.645,230.223 100.712 M250.385 106.619 C 251.168 107.452,251.849 108.134,251.901 108.134 C 252.140 108.134,251.887 107.848,250.478 106.526 L 248.963 105.104 250.385 106.619 M234.806 112.135 C 234.783 112.530,235.365 113.345,236.284 114.208 L 237.799 115.630 236.473 114.195 C 235.743 113.405,235.078 112.472,234.995 112.121 C 234.845 111.494,234.842 111.495,234.806 112.135 M277.905 112.919 C 277.905 113.533,277.971 113.784,278.051 113.477 C 278.131 113.170,278.131 112.667,278.051 112.360 C 277.971 112.053,277.905 112.305,277.905 112.919 M110.773 113.557 C 110.773 114.346,110.835 114.669,110.911 114.274 C 110.987 113.880,110.987 113.234,110.911 112.839 C 110.835 112.444,110.773 112.767,110.773 113.557 M112.057 114.514 C 112.057 115.478,112.117 115.873,112.190 115.391 C 112.263 114.908,112.263 114.119,112.190 113.636 C 112.117 113.154,112.057 113.549,112.057 114.514 M120.375 116.587 C 120.375 118.517,120.428 119.265,120.491 118.250 C 120.555 117.235,120.554 115.656,120.490 114.741 C 120.426 113.826,120.374 114.657,120.375 116.587 M242.743 115.630 C 243.873 116.770,244.870 117.703,244.958 117.703 C 245.045 117.703,244.192 116.770,243.062 115.630 C 241.932 114.490,240.935 113.557,240.848 113.557 C 240.760 113.557,241.613 114.490,242.743 115.630 M128.653 115.949 C 128.655 117.177,128.712 117.640,128.781 116.979 C 128.850 116.317,128.849 115.312,128.779 114.746 C 128.708 114.179,128.652 114.721,128.653 115.949 M269.651 116.587 C 269.650 118.166,269.704 118.852,269.771 118.112 C 269.837 117.371,269.838 116.080,269.772 115.241 C 269.706 114.402,269.652 115.008,269.651 116.587 M234.290 116.427 C 235.154 117.305,235.933 118.022,236.021 118.022 C 236.108 118.022,235.473 117.305,234.609 116.427 C 233.745 115.550,232.967 114.833,232.879 114.833 C 232.791 114.833,233.426 115.550,234.290 116.427 M238.437 118.660 C 240.185 120.415,241.687 121.850,241.774 121.850 C 241.862 121.850,240.504 120.415,238.756 118.660 C 237.008 116.906,235.506 115.470,235.419 115.470 C 235.331 115.470,236.689 116.906,238.437 118.660 M232.376 117.863 C 232.376 118.619,232.484 119.171,232.616 119.089 C 232.747 119.008,232.855 118.456,232.855 117.863 C 232.855 117.270,232.747 116.718,232.616 116.636 C 232.484 116.555,232.376 117.107,232.376 117.863 M112.061 118.820 C 112.062 119.872,112.122 120.265,112.193 119.691 C 112.264 119.118,112.262 118.257,112.190 117.777 C 112.117 117.298,112.059 117.767,112.061 118.820 M110.766 119.777 C 110.770 120.478,110.835 120.728,110.911 120.331 C 110.988 119.934,110.985 119.360,110.905 119.055 C 110.825 118.750,110.763 119.075,110.766 119.777 M277.918 120.574 C 277.918 121.364,277.980 121.687,278.056 121.292 C 278.132 120.897,278.132 120.251,278.056 119.856 C 277.980 119.462,277.918 119.785,277.918 120.574 M238.915 120.674 C 238.915 120.729,239.382 121.195,239.952 121.711 L 240.989 122.648 240.052 121.611 C 239.179 120.645,238.915 120.428,238.915 120.674 M236.045 123.604 C 236.998 124.569,237.849 125.359,237.937 125.359 C 238.024 125.359,237.317 124.569,236.364 123.604 C 235.411 122.640,234.559 121.850,234.472 121.850 C 234.384 121.850,235.092 122.640,236.045 123.604 M257.211 126.794 C 257.210 128.373,257.263 129.059,257.330 128.319 C 257.397 127.579,257.398 126.287,257.332 125.448 C 257.266 124.610,257.211 125.215,257.211 126.794 M258.486 126.794 C 258.485 128.373,258.539 129.059,258.606 128.319 C 258.673 127.579,258.674 126.287,258.608 125.448 C 258.542 124.610,258.487 125.215,258.486 126.794 M139.824 126.954 C 139.824 128.445,139.879 129.055,139.946 128.309 C 140.014 127.564,140.014 126.344,139.946 125.598 C 139.879 124.852,139.824 125.463,139.824 126.954 M141.094 126.794 C 141.095 128.022,141.153 128.486,141.222 127.824 C 141.291 127.162,141.290 126.157,141.219 125.591 C 141.149 125.025,141.092 125.566,141.094 126.794 M163.716 127.174 C 164.023 127.254,164.526 127.254,164.833 127.174 C 165.140 127.093,164.888 127.028,164.274 127.028 C 163.660 127.028,163.409 127.093,163.716 127.174 M210.281 127.911 C 210.281 128.525,210.347 128.776,210.427 128.469 C 210.507 128.162,210.507 127.659,210.427 127.352 C 210.347 127.045,210.281 127.297,210.281 127.911 M188.293 129.187 C 188.293 130.152,188.353 130.546,188.426 130.064 C 188.499 129.581,188.499 128.792,188.426 128.309 C 188.353 127.827,188.293 128.222,188.293 129.187 M196.252 128.149 C 198.138 128.205,201.224 128.205,203.110 128.149 C 204.996 128.092,203.453 128.046,199.681 128.046 C 195.909 128.046,194.366 128.092,196.252 128.149 M210.331 134.450 C 210.332 136.730,210.383 137.622,210.444 136.430 C 210.506 135.239,210.505 133.373,210.443 132.283 C 210.381 131.194,210.331 132.169,210.331 134.450 M224.997 144.976 C 224.998 146.730,225.051 147.407,225.116 146.481 C 225.181 145.554,225.180 144.118,225.114 143.291 C 225.049 142.463,224.996 143.222,224.997 144.976 M177.808 149.282 C 177.808 153.230,177.854 154.844,177.910 152.871 C 177.966 150.897,177.966 147.667,177.910 145.694 C 177.854 143.720,177.808 145.335,177.808 149.282 M173.918 149.282 C 173.918 149.896,173.983 150.148,174.064 149.841 C 174.144 149.533,174.144 149.031,174.064 148.724 C 173.983 148.417,173.918 148.668,173.918 149.282 M224.961 152.951 C 224.964 153.652,225.030 153.902,225.106 153.505 C 225.182 153.108,225.179 152.534,225.100 152.229 C 225.020 151.924,224.957 152.249,224.961 152.951 M161.228 154.359 C 161.061 154.520,160.566 154.715,160.128 154.794 L 159.330 154.937 160.168 154.980 C 160.629 155.004,161.185 154.809,161.404 154.545 C 161.838 154.022,161.714 153.891,161.228 154.359 M180.471 160.362 C 181.221 160.429,182.370 160.428,183.023 160.359 C 183.676 160.291,183.062 160.236,181.659 160.237 C 180.255 160.238,179.721 160.294,180.471 160.362 M210.349 160.538 C 210.262 160.763,210.235 163.454,210.287 166.518 L 210.383 172.089 210.455 166.285 L 210.526 160.480 212.201 160.363 L 213.876 160.246 212.191 160.187 C 211.067 160.147,210.454 160.264,210.349 160.538 M217.952 160.362 C 218.791 160.428,220.083 160.428,220.823 160.361 C 221.563 160.294,220.877 160.240,219.298 160.241 C 217.719 160.242,217.114 160.297,217.952 160.362 M188.300 165.550 C 188.300 166.691,188.358 167.157,188.429 166.587 C 188.499 166.017,188.499 165.084,188.429 164.514 C 188.358 163.943,188.300 164.410,188.300 165.550 M170.335 167.245 C 170.335 167.300,170.801 167.766,171.372 168.282 L 172.408 169.219 171.471 168.182 C 170.598 167.215,170.335 166.999,170.335 167.245 M147.828 168.279 C 147.219 168.767,147.219 168.771,147.847 168.482 C 148.198 168.320,148.700 168.108,148.963 168.011 C 149.377 167.858,149.374 167.830,148.945 167.808 C 148.671 167.794,148.169 168.006,147.828 168.279 M151.515 168.141 C 151.954 168.315,152.678 168.772,153.125 169.157 C 153.572 169.542,153.466 169.390,152.890 168.820 C 152.315 168.250,151.590 167.792,151.281 167.803 C 150.882 167.818,150.950 167.916,151.515 168.141 M173.684 169.059 C 174.369 169.761,175.002 170.335,175.090 170.335 C 175.177 170.335,174.688 169.761,174.003 169.059 C 173.318 168.357,172.686 167.783,172.598 167.783 C 172.510 167.783,172.999 168.357,173.684 169.059 M223.285 172.408 C 221.978 173.724,220.981 174.801,221.069 174.801 C 221.156 174.801,222.297 173.724,223.604 172.408 C 224.911 171.093,225.909 170.016,225.821 170.016 C 225.734 170.016,224.592 171.093,223.285 172.408 M175.120 172.408 C 176.250 173.549,177.246 174.482,177.334 174.482 C 177.422 174.482,176.569 173.549,175.439 172.408 C 174.308 171.268,173.312 170.335,173.224 170.335 C 173.136 170.335,173.989 171.268,175.120 172.408 M195.774 170.892 C 197.747 170.948,200.977 170.948,202.951 170.892 C 204.924 170.836,203.309 170.790,199.362 170.790 C 195.415 170.790,193.800 170.836,195.774 170.892 M163.636 172.089 C 164.232 172.703,164.790 173.206,164.878 173.206 C 164.966 173.206,164.550 172.703,163.955 172.089 C 163.360 171.475,162.801 170.973,162.714 170.973 C 162.626 170.973,163.041 171.475,163.636 172.089 M165.231 172.030 C 165.231 172.085,165.698 172.551,166.268 173.066 L 167.305 174.003 166.368 172.967 C 165.494 172.000,165.231 171.783,165.231 172.030 M253.663 172.887 C 253.663 173.501,253.728 173.752,253.808 173.445 C 253.889 173.138,253.889 172.636,253.808 172.329 C 253.728 172.022,253.663 172.273,253.663 172.887 M166.826 175.598 C 167.421 176.212,167.980 176.715,168.068 176.715 C 168.155 176.715,167.740 176.212,167.145 175.598 C 166.550 174.984,165.991 174.482,165.904 174.482 C 165.816 174.482,166.231 174.984,166.826 175.598 M195.455 175.039 C 197.604 175.094,201.120 175.094,203.270 175.039 C 205.419 174.984,203.660 174.939,199.362 174.939 C 195.064 174.939,193.305 174.984,195.455 175.039 M177.990 175.219 C 177.990 175.274,178.457 175.741,179.027 176.256 L 180.064 177.193 179.127 176.156 C 178.254 175.190,177.990 174.973,177.990 175.219 M230.761 176.475 L 229.825 177.512 230.861 176.575 C 231.431 176.060,231.898 175.593,231.898 175.538 C 231.898 175.292,231.635 175.509,230.761 176.475 M181.805 177.113 C 182.587 177.947,183.269 178.628,183.320 178.628 C 183.560 178.628,183.306 178.342,181.898 177.020 L 180.383 175.598 181.805 177.113 M218.501 177.193 C 217.726 177.982,217.164 178.628,217.252 178.628 C 217.339 178.628,218.045 177.982,218.820 177.193 C 219.595 176.404,220.157 175.758,220.069 175.758 C 219.981 175.758,219.276 176.404,218.501 177.193 M173.365 180.542 C 175.817 182.998,177.894 185.008,177.982 185.008 C 178.070 185.008,176.136 182.998,173.684 180.542 C 171.233 178.086,169.155 176.077,169.068 176.077 C 168.980 176.077,170.914 178.086,173.365 180.542 M215.932 177.911 L 214.833 179.107 216.029 178.008 C 217.142 176.984,217.372 176.715,217.128 176.715 C 217.075 176.715,216.536 177.253,215.932 177.911 M223.764 181.818 C 221.664 183.923,220.018 185.646,220.106 185.646 C 220.193 185.646,221.983 183.923,224.083 181.818 C 226.183 179.713,227.829 177.990,227.741 177.990 C 227.654 177.990,225.864 179.713,223.764 181.818 M182.775 179.745 C 183.370 180.359,183.929 180.861,184.017 180.861 C 184.104 180.861,183.689 180.359,183.094 179.745 C 182.499 179.131,181.940 178.628,181.853 178.628 C 181.765 178.628,182.180 179.131,182.775 179.745 M163.158 181.180 C 164.022 182.057,164.801 182.775,164.888 182.775 C 164.976 182.775,164.341 182.057,163.477 181.180 C 162.613 180.303,161.834 179.585,161.746 179.585 C 161.659 179.585,162.294 180.303,163.158 181.180 M235.551 180.941 L 234.290 182.297 235.646 181.036 C 236.907 179.863,237.148 179.585,236.907 179.585 C 236.855 179.585,236.245 180.195,235.551 180.941 M171.292 180.323 C 171.292 180.378,171.758 180.845,172.329 181.360 L 173.365 182.297 172.428 181.260 C 171.555 180.294,171.292 180.077,171.292 180.323 M185.646 182.237 C 185.646 182.292,186.112 182.758,186.683 183.274 L 187.719 184.211 186.782 183.174 C 185.909 182.208,185.646 181.991,185.646 182.237 M229.820 187.002 L 225.678 191.228 229.904 187.086 C 233.830 183.238,234.275 182.775,234.046 182.775 C 234.000 182.775,232.098 184.677,229.820 187.002 M245.434 184.131 L 244.498 185.167 245.534 184.231 C 246.104 183.715,246.571 183.249,246.571 183.194 C 246.571 182.947,246.308 183.164,245.434 184.131 M168.900 187.241 C 170.823 189.171,172.469 190.750,172.557 190.750 C 172.645 190.750,171.142 189.171,169.219 187.241 C 167.295 185.311,165.649 183.732,165.561 183.732 C 165.473 183.732,166.976 185.311,168.900 187.241 M154.692 186.045 C 156.013 187.453,156.300 187.706,156.300 187.467 C 156.300 187.416,155.618 186.734,154.785 185.952 L 153.270 184.530 154.692 186.045 M242.253 187.640 L 240.670 189.314 242.344 187.731 C 243.901 186.260,244.165 185.965,243.927 185.965 C 243.877 185.965,243.123 186.719,242.253 187.640 M157.257 188.923 C 157.257 188.972,158.369 190.084,159.729 191.396 L 162.201 193.780 159.817 191.308 C 157.602 189.012,157.257 188.690,157.257 188.923 M236.676 193.541 L 233.652 196.651 236.762 193.627 C 238.473 191.964,239.872 190.564,239.872 190.517 C 239.872 190.286,239.485 190.652,236.676 193.541 M173.206 191.168 C 173.206 191.223,173.672 191.690,174.242 192.205 L 175.279 193.142 174.342 192.105 C 173.469 191.139,173.206 190.922,173.206 191.168 M156.300 200.159 C 158.488 202.352,160.349 204.147,160.437 204.147 C 160.525 204.147,158.807 202.352,156.619 200.159 C 154.431 197.967,152.569 196.172,152.482 196.172 C 152.394 196.172,154.112 197.967,156.300 200.159 M164.912 196.272 C 164.912 196.327,165.379 196.793,165.949 197.309 L 166.986 198.246 166.049 197.209 C 165.175 196.243,164.912 196.026,164.912 196.272 M231.399 198.485 L 230.463 199.522 231.499 198.585 C 232.466 197.711,232.683 197.448,232.436 197.448 C 232.381 197.448,231.915 197.915,231.399 198.485 M168.102 199.143 C 168.102 199.198,168.569 199.664,169.139 200.180 L 170.175 201.116 169.239 200.080 C 168.365 199.113,168.102 198.896,168.102 199.143 M259.575 201.507 C 260.148 201.578,261.010 201.577,261.489 201.504 C 261.968 201.431,261.499 201.373,260.447 201.375 C 259.394 201.377,259.002 201.436,259.575 201.507 M161.404 203.290 C 161.404 203.345,161.870 203.811,162.440 204.326 L 163.477 205.263 162.540 204.226 C 161.667 203.260,161.404 203.043,161.404 203.290 M198.175 205.976 C 199.014 206.042,200.306 206.042,201.046 205.975 C 201.787 205.908,201.100 205.854,199.522 205.855 C 197.943 205.856,197.337 205.911,198.175 205.976 M259.729 207.875 C 260.036 207.956,260.538 207.956,260.845 207.875 C 261.152 207.795,260.901 207.730,260.287 207.730 C 259.673 207.730,259.422 207.795,259.729 207.875 M272.408 210.686 C 273.003 211.300,273.562 211.802,273.650 211.802 C 273.738 211.802,273.322 211.300,272.727 210.686 C 272.132 210.072,271.573 209.569,271.486 209.569 C 271.398 209.569,271.813 210.072,272.408 210.686 M249.442 212.281 C 248.667 213.070,248.105 213.716,248.193 213.716 C 248.280 213.716,248.986 213.070,249.761 212.281 C 250.536 211.491,251.098 210.845,251.010 210.845 C 250.922 210.845,250.217 211.491,249.442 212.281 M188.038 214.354 C 188.902 215.231,189.681 215.949,189.769 215.949 C 189.856 215.949,189.221 215.231,188.357 214.354 C 187.493 213.477,186.715 212.759,186.627 212.759 C 186.539 212.759,187.174 213.477,188.038 214.354 M266.986 215.789 C 267.581 216.404,268.140 216.906,268.227 216.906 C 268.315 216.906,267.900 216.404,267.305 215.789 C 266.709 215.175,266.151 214.673,266.063 214.673 C 265.975 214.673,266.390 215.175,266.986 215.789 M275.065 222.807 C 275.066 224.035,275.124 224.498,275.193 223.837 C 275.262 223.175,275.261 222.170,275.190 221.604 C 275.120 221.037,275.063 221.579,275.065 222.807 M242.526 223.285 C 242.526 224.426,242.584 224.892,242.655 224.322 C 242.726 223.752,242.726 222.819,242.655 222.249 C 242.584 221.679,242.526 222.145,242.526 223.285 M281.754 222.967 C 281.754 223.931,281.814 224.326,281.887 223.844 C 281.960 223.361,281.960 222.572,281.887 222.089 C 281.814 221.607,281.754 222.002,281.754 222.967 M245.933 228.511 C 245.933 228.854,246.882 230.622,247.066 230.622 C 247.154 230.622,246.988 230.156,246.698 229.585 C 246.106 228.421,245.933 228.178,245.933 228.511 M266.968 230.223 L 265.869 231.419 267.065 230.320 C 268.179 229.297,268.408 229.027,268.165 229.027 C 268.111 229.027,267.573 229.565,266.968 230.223 M203.634 233.812 C 203.634 236.180,203.684 237.149,203.745 235.965 C 203.807 234.781,203.807 232.843,203.745 231.659 C 203.684 230.474,203.634 231.443,203.634 233.812 M195.307 231.738 C 195.309 232.616,195.371 232.937,195.444 232.452 C 195.518 231.967,195.516 231.249,195.440 230.857 C 195.364 230.465,195.304 230.861,195.307 231.738 M264.434 231.898 C 263.820 232.234,263.432 232.515,263.572 232.523 C 263.910 232.540,265.710 231.605,265.710 231.411 C 265.710 231.202,265.691 231.210,264.434 231.898 M270.494 233.652 C 269.720 234.442,269.157 235.088,269.245 235.088 C 269.333 235.088,270.039 234.442,270.813 233.652 C 271.588 232.863,272.150 232.217,272.063 232.217 C 271.975 232.217,271.269 232.863,270.494 233.652 M249.282 233.812 C 249.968 234.514,250.600 235.088,250.688 235.088 C 250.775 235.088,250.287 234.514,249.601 233.812 C 248.916 233.110,248.284 232.536,248.196 232.536 C 248.108 232.536,248.597 233.110,249.282 233.812 M259.256 233.086 C 259.829 233.157,260.691 233.156,261.170 233.083 C 261.649 233.010,261.180 232.952,260.128 232.954 C 259.075 232.955,258.683 233.015,259.256 233.086 M244.498 238.278 C 245.183 238.979,245.815 239.553,245.903 239.553 C 245.991 239.553,245.502 238.979,244.817 238.278 C 244.131 237.576,243.499 237.002,243.411 237.002 C 243.323 237.002,243.812 237.576,244.498 238.278 M255.406 237.544 C 255.618 237.695,255.843 238.810,255.910 240.041 L 256.031 242.265 256.006 239.898 C 255.987 238.079,255.870 237.501,255.502 237.402 C 255.165 237.310,255.137 237.352,255.406 237.544 M195.621 238.915 C 195.621 239.705,195.683 240.028,195.759 239.633 C 195.835 239.238,195.835 238.593,195.759 238.198 C 195.683 237.803,195.621 238.126,195.621 238.915 M263.876 239.075 C 263.880 239.777,263.945 240.026,264.021 239.629 C 264.098 239.233,264.095 238.659,264.015 238.354 C 263.935 238.049,263.873 238.373,263.876 239.075 M253.584 240.924 L 253.739 242.903 253.842 241.183 C 253.898 240.236,253.828 239.346,253.687 239.204 C 253.545 239.061,253.499 239.835,253.584 240.924 M248.310 260.686 L 247.049 262.041 248.405 260.781 C 249.666 259.608,249.907 259.330,249.666 259.330 C 249.614 259.330,249.004 259.940,248.310 260.686 M213.078 260.706 C 213.078 260.761,213.545 261.227,214.115 261.743 L 215.152 262.679 214.215 261.643 C 213.341 260.676,213.078 260.459,213.078 260.706 M254.209 266.268 L 253.110 267.464 254.306 266.365 C 255.420 265.342,255.649 265.072,255.405 265.072 C 255.352 265.072,254.814 265.610,254.209 266.268 M229.119 267.541 C 230.134 267.604,231.713 267.604,232.627 267.539 C 233.542 267.475,232.711 267.423,230.781 267.424 C 228.852 267.425,228.103 267.477,229.119 267.541 M229.426 275.834 C 230.435 275.897,232.085 275.897,233.094 275.834 C 234.103 275.771,233.278 275.719,231.260 275.719 C 229.242 275.719,228.417 275.771,229.426 275.834 M264.992 293.371 L 267.305 293.489 267.305 303.987 L 267.305 314.486 264.992 314.603 L 262.679 314.721 265.072 314.697 L 267.464 314.673 267.464 303.987 L 267.464 293.301 265.072 293.277 L 262.679 293.253 264.992 293.371 M282.761 293.543 C 282.676 293.764,282.645 298.608,282.691 304.309 L 282.775 314.673 285.008 314.694 L 287.241 314.715 285.088 314.600 L 282.935 314.486 282.935 303.987 L 282.935 293.489 285.247 293.379 L 287.560 293.269 285.237 293.205 C 283.616 293.161,282.868 293.263,282.761 293.543 M114.917 294.009 C 115.402 294.082,116.119 294.080,116.512 294.004 C 116.904 293.929,116.507 293.869,115.630 293.871 C 114.753 293.874,114.432 293.935,114.917 294.009 M206.135 295.375 C 206.135 295.989,206.200 296.240,206.280 295.933 C 206.361 295.626,206.361 295.124,206.280 294.817 C 206.200 294.510,206.135 294.761,206.135 295.375 M186.497 295.587 C 186.380 295.704,186.284 296.557,186.284 297.482 L 186.284 299.164 185.088 299.289 L 183.892 299.414 185.247 299.468 L 186.603 299.522 186.603 297.581 L 186.603 295.641 188.806 295.747 C 190.018 295.806,190.943 295.746,190.861 295.614 C 190.677 295.318,186.790 295.294,186.497 295.587 M271.677 295.574 C 271.553 295.699,271.451 296.557,271.451 297.481 C 271.451 299.139,271.437 299.164,270.415 299.291 C 269.394 299.417,269.396 299.420,270.574 299.470 L 271.770 299.522 271.770 297.608 L 271.770 295.694 273.844 295.694 L 275.917 295.694 275.917 297.608 L 275.917 299.522 277.831 299.522 L 279.745 299.522 279.745 301.101 L 279.745 302.679 277.911 302.775 L 276.077 302.871 276.061 306.380 L 276.045 309.888 276.151 306.475 L 276.257 303.062 278.080 302.966 L 279.904 302.871 279.904 301.116 L 279.904 299.362 278.086 299.267 L 276.267 299.172 276.172 297.353 L 276.077 295.534 273.990 295.441 C 272.842 295.390,271.801 295.450,271.677 295.574 M210.911 299.282 L 210.845 302.392 215.391 302.322 L 219.936 302.252 215.562 302.154 L 211.188 302.056 211.083 299.114 L 210.978 296.172 210.911 299.282 M114.912 297.836 C 115.395 297.909,116.184 297.909,116.667 297.836 C 117.149 297.763,116.754 297.703,115.789 297.703 C 114.825 297.703,114.430 297.763,114.912 297.836 M206.135 306.473 L 206.061 314.859 208.533 314.766 L 211.005 314.673 211.019 310.526 L 211.033 306.380 210.930 310.447 L 210.827 314.514 208.609 314.514 L 206.390 314.514 206.300 306.300 L 206.209 298.086 206.135 306.473 M112.174 299.096 C 111.724 299.547,111.993 300.725,112.679 301.306 L 113.397 301.914 112.800 301.207 C 112.423 300.762,112.259 300.202,112.357 299.692 C 112.522 298.826,112.504 298.767,112.174 299.096 M126.209 299.096 C 126.093 299.213,125.997 302.808,125.997 307.085 L 125.997 314.860 128.309 314.767 L 130.622 314.673 130.636 310.048 L 130.650 305.423 130.548 309.968 L 130.445 314.514 128.380 314.514 L 126.316 314.514 126.316 306.873 L 126.316 299.232 128.469 299.120 L 130.622 299.009 128.522 298.946 C 127.367 298.912,126.326 298.979,126.209 299.096 M173.030 299.289 C 172.945 299.512,172.913 303.064,172.960 307.184 L 173.046 314.673 175.279 314.694 L 177.512 314.715 175.359 314.600 L 173.206 314.486 173.206 306.859 L 173.206 299.232 175.359 299.120 L 177.512 299.009 175.349 298.946 C 173.846 298.903,173.138 299.007,173.030 299.289 M107.264 300.478 C 107.264 301.268,107.326 301.591,107.402 301.196 C 107.478 300.801,107.478 300.156,107.402 299.761 C 107.326 299.366,107.264 299.689,107.264 300.478 M137.959 299.574 C 138.309 299.768,138.962 300.230,139.409 300.601 C 139.855 300.972,139.750 300.809,139.174 300.239 C 138.598 299.669,137.946 299.207,137.724 299.212 C 137.502 299.218,137.608 299.380,137.959 299.574 M191.388 299.383 C 192.459 299.623,194.825 299.665,194.688 299.442 C 194.606 299.310,193.723 299.219,192.724 299.240 C 191.726 299.260,191.124 299.325,191.388 299.383 M156.061 300.230 C 155.285 300.604,155.120 301.260,155.711 301.625 C 155.953 301.775,155.992 301.712,155.825 301.441 C 155.661 301.176,155.843 300.819,156.334 300.442 C 157.192 299.782,157.115 299.721,156.061 300.230 M245.889 300.497 L 245.136 301.154 246.093 300.594 C 247.352 299.856,247.371 299.841,246.978 299.841 C 246.793 299.841,246.303 300.136,245.889 300.497 M194.658 301.276 C 194.661 301.978,194.727 302.227,194.803 301.830 C 194.879 301.434,194.876 300.859,194.797 300.554 C 194.717 300.250,194.654 300.574,194.658 301.276 M107.496 302.304 C 107.496 302.489,107.792 302.980,108.153 303.394 L 108.810 304.147 108.249 303.190 C 107.512 301.930,107.496 301.912,107.496 302.304 M184.056 302.472 C 184.052 302.897,184.315 303.030,185.158 303.030 L 186.264 303.030 186.369 306.778 L 186.473 310.526 186.458 306.699 L 186.443 302.871 185.487 302.762 C 184.962 302.703,184.426 302.487,184.296 302.284 C 184.143 302.044,184.059 302.110,184.056 302.472 M160.526 302.621 C 161.009 302.694,161.798 302.694,162.281 302.621 C 162.763 302.548,162.368 302.488,161.404 302.488 C 160.439 302.488,160.044 302.548,160.526 302.621 M236.995 302.748 C 237.430 302.922,238.011 303.236,238.287 303.446 C 238.562 303.656,238.449 303.505,238.036 303.110 C 237.623 302.715,237.042 302.401,236.745 302.413 C 236.385 302.426,236.469 302.538,236.995 302.748 M250.478 302.621 C 250.961 302.694,251.750 302.694,252.233 302.621 C 252.715 302.548,252.321 302.488,251.356 302.488 C 250.391 302.488,249.996 302.548,250.478 302.621 M131.980 303.429 C 131.567 303.824,131.496 303.937,131.822 303.681 C 132.149 303.424,133.089 303.121,133.911 303.006 L 135.407 302.797 134.069 302.754 C 133.078 302.722,132.536 302.897,131.980 303.429 M163.983 303.546 C 164.406 304.094,164.817 304.484,164.895 304.414 C 164.974 304.344,164.627 303.897,164.125 303.419 L 163.213 302.552 163.983 303.546 M191.946 302.942 C 192.516 303.013,193.449 303.013,194.019 302.942 C 194.589 302.871,194.123 302.813,192.982 302.813 C 191.842 302.813,191.376 302.871,191.946 302.942 M270.246 302.931 L 271.432 303.068 271.536 306.797 L 271.640 310.526 271.626 306.699 L 271.611 302.871 270.335 302.833 L 269.059 302.795 270.246 302.931 M178.972 303.856 C 178.432 304.310,177.995 304.849,178.000 305.052 C 178.005 305.256,178.162 305.162,178.347 304.843 C 178.533 304.524,179.138 303.986,179.693 303.648 C 180.248 303.309,180.533 303.032,180.328 303.031 C 180.122 303.031,179.512 303.402,178.972 303.856 M151.905 309.171 L 151.834 314.514 149.769 314.514 L 147.704 314.514 147.607 309.809 L 147.509 305.104 147.439 309.968 L 147.368 314.833 149.611 314.833 C 152.358 314.833,152.193 315.229,152.073 308.919 L 151.976 303.828 151.905 309.171 M287.710 304.643 C 287.517 305.003,287.406 305.440,287.464 305.614 C 287.522 305.787,287.734 305.492,287.935 304.958 C 288.355 303.848,288.229 303.673,287.710 304.643 M169.449 309.490 L 169.378 314.514 167.491 314.514 C 166.279 314.514,165.546 314.371,165.443 314.115 C 165.346 313.877,165.271 313.941,165.256 314.274 C 165.224 314.984,169.287 315.122,169.556 314.420 C 169.644 314.193,169.671 311.860,169.617 309.236 L 169.519 304.466 169.449 309.490 M259.401 309.490 L 259.330 314.514 257.438 314.514 C 255.730 314.514,255.533 314.444,255.409 313.796 C 255.290 313.180,255.264 313.203,255.227 313.955 C 255.184 314.827,255.196 314.833,257.267 314.833 C 259.823 314.833,259.690 315.155,259.569 309.236 L 259.471 304.466 259.401 309.490 M243.477 306.539 C 243.477 307.504,243.537 307.899,243.610 307.416 C 243.683 306.934,243.683 306.144,243.610 305.662 C 243.537 305.179,243.477 305.574,243.477 306.539 M293.927 309.808 L 293.939 314.673 296.172 314.694 L 298.405 314.715 296.260 314.600 L 294.115 314.486 294.014 309.715 L 293.914 304.943 293.927 309.808 M161.962 305.494 C 162.532 305.565,163.465 305.565,164.035 305.494 C 164.605 305.423,164.139 305.365,162.998 305.365 C 161.858 305.365,161.392 305.423,161.962 305.494 M235.810 305.492 C 236.295 305.565,237.012 305.563,237.405 305.488 C 237.797 305.412,237.400 305.352,236.523 305.354 C 235.646 305.357,235.325 305.419,235.810 305.492 M157.576 305.916 C 157.226 306.152,157.355 306.182,158.054 306.025 C 159.227 305.763,159.482 305.581,158.666 305.587 C 158.329 305.590,157.839 305.738,157.576 305.916 M246.321 306.778 C 245.828 307.261,245.718 307.424,246.077 307.141 C 246.436 306.858,247.018 306.467,247.368 306.273 C 247.719 306.079,247.829 305.916,247.613 305.911 C 247.396 305.905,246.815 306.296,246.321 306.778 M117.951 307.674 C 118.356 307.957,118.679 308.539,118.704 309.029 C 118.744 309.819,118.759 309.828,118.889 309.144 C 119.032 308.390,118.227 307.177,117.583 307.177 C 117.396 307.177,117.561 307.400,117.951 307.674 M123.525 308.612 C 123.529 309.314,123.594 309.564,123.671 309.167 C 123.747 308.770,123.744 308.196,123.664 307.891 C 123.584 307.586,123.522 307.911,123.525 308.612 M249.651 308.717 C 249.360 309.038,249.140 309.648,249.161 310.073 C 249.194 310.747,249.224 310.725,249.401 309.897 C 249.521 309.337,249.930 308.784,250.400 308.546 C 250.898 308.294,251.006 308.142,250.687 308.139 C 250.408 308.136,249.941 308.396,249.651 308.717 M244.738 310.207 C 244.741 310.909,244.806 311.159,244.883 310.762 C 244.959 310.365,244.956 309.791,244.876 309.486 C 244.796 309.181,244.734 309.506,244.738 310.207 M109.582 309.749 C 109.773 310.059,112.569 311.143,112.736 310.971 C 112.803 310.902,112.086 310.543,111.143 310.172 C 110.199 309.802,109.497 309.612,109.582 309.749 M191.347 310.766 C 191.617 311.110,192.167 311.305,192.782 311.276 L 193.780 311.228 192.823 311.088 C 192.297 311.011,191.651 310.782,191.388 310.578 C 190.971 310.255,190.966 310.280,191.347 310.766 M238.118 310.857 C 237.592 311.098,237.385 311.301,237.658 311.309 C 237.932 311.317,238.434 311.113,238.775 310.855 C 239.531 310.284,239.369 310.284,238.118 310.857 M276.514 310.766 C 276.785 311.110,277.334 311.305,277.950 311.276 L 278.947 311.228 277.990 311.088 C 277.464 311.011,276.818 310.782,276.555 310.578 C 276.139 310.255,276.133 310.280,276.514 310.766 M114.274 311.233 C 114.757 311.306,115.546 311.306,116.029 311.233 C 116.511 311.160,116.116 311.100,115.152 311.100 C 114.187 311.100,113.792 311.160,114.274 311.233 M161.164 311.863 C 161.471 311.943,161.974 311.943,162.281 311.863 C 162.588 311.782,162.337 311.717,161.722 311.717 C 161.108 311.717,160.857 311.782,161.164 311.863 M250.957 311.868 C 251.352 311.944,251.998 311.944,252.392 311.868 C 252.787 311.792,252.464 311.730,251.675 311.730 C 250.885 311.730,250.562 311.792,250.957 311.868 M137.879 314.746 C 138.537 314.815,139.613 314.815,140.271 314.746 C 140.929 314.677,140.391 314.621,139.075 314.621 C 137.759 314.621,137.221 314.677,137.879 314.746 M220.981 314.748 C 221.732 314.815,222.880 314.814,223.533 314.745 C 224.186 314.677,223.573 314.622,222.169 314.623 C 220.766 314.624,220.231 314.680,220.981 314.748 M114.121 315.064 C 114.694 315.135,115.555 315.133,116.034 315.060 C 116.514 314.988,116.045 314.930,114.992 314.931 C 113.939 314.933,113.547 314.993,114.121 315.064 M160.207 315.052 C 160.514 315.133,161.017 315.133,161.324 315.052 C 161.631 314.972,161.380 314.907,160.766 314.907 C 160.152 314.907,159.900 314.972,160.207 315.052 M191.467 315.052 C 191.774 315.133,192.277 315.133,192.584 315.052 C 192.891 314.972,192.640 314.907,192.026 314.907 C 191.411 314.907,191.160 314.972,191.467 315.052 M235.486 315.052 C 235.793 315.133,236.296 315.133,236.603 315.052 C 236.910 314.972,236.659 314.907,236.045 314.907 C 235.431 314.907,235.179 314.972,235.486 315.052 M250.004 315.058 C 250.401 315.134,250.975 315.132,251.280 315.052 C 251.585 314.972,251.260 314.909,250.558 314.913 C 249.856 314.917,249.607 314.982,250.004 315.058 M276.635 315.052 C 276.942 315.133,277.444 315.133,277.751 315.052 C 278.058 314.972,277.807 314.907,277.193 314.907 C 276.579 314.907,276.328 314.972,276.635 315.052 M197.847 323.992 C 198.329 324.066,199.119 324.066,199.601 323.992 C 200.084 323.919,199.689 323.860,198.724 323.860 C 197.759 323.860,197.364 323.919,197.847 323.992 M204.356 327.512 C 204.274 327.644,204.683 327.751,205.263 327.751 C 205.844 327.751,206.252 327.644,206.171 327.512 C 206.089 327.380,205.681 327.273,205.263 327.273 C 204.845 327.273,204.437 327.380,204.356 327.512 M254.036 328.468 C 254.589 329.122,255.502 329.009,255.502 328.286 C 255.502 328.185,255.332 328.272,255.124 328.480 C 254.832 328.772,254.595 328.732,254.087 328.305 C 253.431 327.753,253.431 327.753,254.036 328.468 M169.158 329.984 C 169.160 331.037,169.219 331.429,169.290 330.856 C 169.361 330.282,169.360 329.421,169.287 328.942 C 169.214 328.462,169.156 328.931,169.158 329.984 M165.982 333.493 C 165.981 335.072,166.035 335.758,166.102 335.018 C 166.169 334.277,166.170 332.985,166.104 332.147 C 166.038 331.308,165.983 331.914,165.982 333.493 M243.099 332.128 L 243.062 332.995 239.021 333.085 C 236.059 333.150,234.959 333.282,234.898 333.581 C 234.853 333.804,234.890 333.840,234.979 333.660 C 235.076 333.463,236.718 333.333,239.112 333.333 C 243.286 333.333,243.641 333.206,243.286 331.837 C 243.187 331.455,243.124 331.554,243.099 332.128 M161.005 333.245 C 161.575 333.316,162.508 333.316,163.078 333.245 C 163.648 333.174,163.182 333.116,162.041 333.116 C 160.901 333.116,160.435 333.174,161.005 333.245 M179.984 333.251 C 181.168 333.312,183.106 333.312,184.290 333.251 C 185.474 333.190,184.506 333.139,182.137 333.139 C 179.769 333.139,178.800 333.190,179.984 333.251 M169.150 336.364 C 169.153 337.241,169.215 337.562,169.288 337.077 C 169.361 336.592,169.359 335.874,169.284 335.482 C 169.208 335.090,169.148 335.486,169.150 336.364 M160.207 338.019 C 160.514 338.099,161.017 338.099,161.324 338.019 C 161.631 337.939,161.380 337.873,160.766 337.873 C 160.152 337.873,159.900 337.939,160.207 338.019 M180.781 338.024 C 181.176 338.100,181.822 338.100,182.217 338.024 C 182.612 337.948,182.289 337.886,181.499 337.886 C 180.710 337.886,180.387 337.948,180.781 338.024 " stroke="none" fill="#9cc0ba" fill-rule="evenodd"></path><path id="path3" d="M149.677 64.818 C 149.280 65.013,148.843 65.607,148.705 66.138 C 148.483 66.997,148.211 67.178,146.237 67.781 C 122.287 75.101,106.773 102.132,111.908 127.592 C 112.721 131.618,114.667 137.978,115.185 138.298 C 115.867 138.720,115.830 138.082,115.032 135.666 C 105.874 107.952,117.719 80.897,143.889 69.752 C 147.430 68.244,148.465 68.037,149.131 68.703 C 149.844 69.415,151.913 69.375,152.582 68.635 C 154.300 66.737,151.979 63.686,149.677 64.818 M171.706 73.179 C 166.148 74.630,165.391 75.486,165.610 80.078 C 165.819 84.447,165.949 84.566,172.089 85.998 C 179.947 87.832,181.180 86.958,181.180 79.559 C 181.180 72.033,179.762 71.078,171.706 73.179 M219.575 73.006 C 217.684 74.185,217.544 74.646,217.544 79.672 C 217.544 86.806,219.152 88.437,224.426 86.653 C 225.641 86.242,227.662 85.656,228.917 85.350 C 232.308 84.525,232.673 84.016,232.785 79.959 C 232.920 75.112,232.385 74.470,227.273 73.335 C 222.693 72.318,220.806 72.238,219.575 73.006 M161.244 99.692 C 147.316 102.299,137.971 116.857,140.467 132.059 C 140.981 135.190,142.697 141.230,143.222 141.755 C 143.974 142.507,143.793 140.828,142.769 137.561 C 135.313 113.780,153.845 94.316,176.683 101.942 C 181.560 103.571,186.387 106.591,191.574 111.260 C 198.064 117.102,200.937 117.178,206.877 111.661 C 218.886 100.508,231.876 97.491,243.513 103.152 C 257.002 109.714,261.102 126.251,253.591 143.794 C 252.758 145.738,252.731 147.136,253.543 146.236 C 254.590 145.075,257.090 137.212,257.887 132.574 C 260.570 116.950,252.185 103.361,237.876 100.142 C 227.141 97.727,216.608 101.298,206.445 110.800 C 201.577 115.350,197.415 115.968,194.418 112.586 C 186.205 103.316,171.798 97.717,161.244 99.692 M235.470 111.069 C 234.539 112.000,235.081 112.860,238.836 116.399 C 242.625 119.971,243.627 120.520,244.593 119.553 C 245.432 118.714,244.947 117.821,242.185 115.119 C 237.648 110.682,236.531 110.008,235.470 111.069 M162.679 111.962 C 161.236 113.405,162.276 116.108,164.274 116.108 C 165.631 116.108,166.507 115.114,166.507 113.575 C 166.507 111.514,164.129 110.512,162.679 111.962 M233.174 114.616 C 233.174 115.011,240.875 122.488,241.281 122.488 C 242.023 122.488,240.949 121.129,237.666 117.915 C 233.996 114.322,233.174 113.719,233.174 114.616 M157.666 116.812 C 155.649 117.786,156.342 121.531,158.539 121.531 C 160.830 121.531,161.929 118.837,160.302 117.210 C 159.462 116.371,158.790 116.269,157.666 116.812 M168.537 116.801 C 166.288 117.890,167.075 121.531,169.561 121.531 C 171.924 121.531,172.894 118.762,171.097 117.145 C 170.235 116.370,169.603 116.284,168.537 116.801 M230.342 116.859 C 229.590 117.766,230.237 118.979,231.473 118.979 C 232.551 118.979,232.572 118.953,232.475 117.783 C 232.366 116.459,231.121 115.920,230.342 116.859 M233.812 120.662 C 233.812 121.337,238.166 125.465,238.597 125.199 C 238.855 125.040,238.213 124.188,236.644 122.608 C 234.293 120.242,233.812 119.911,233.812 120.662 M162.882 122.830 C 161.844 123.646,161.705 125.593,162.625 126.426 C 163.400 127.128,165.317 127.110,165.931 126.396 C 167.940 124.056,165.279 120.944,162.882 122.830 M191.080 124.498 C 188.817 125.280,188.517 126.265,188.517 132.902 L 188.517 138.756 182.272 138.756 L 176.027 138.756 175.095 139.688 L 174.163 140.621 174.163 149.083 C 174.163 160.760,173.679 160.128,182.600 160.128 L 188.517 160.128 188.521 165.949 C 188.529 174.985,188.304 174.801,199.281 174.801 C 210.560 174.801,210.207 175.083,210.207 166.045 L 210.207 160.128 216.088 160.128 C 225.242 160.128,224.878 160.568,224.879 149.506 C 224.881 138.380,225.340 138.978,216.619 138.756 L 210.367 138.596 210.207 132.461 L 210.048 126.326 209.005 125.284 L 207.963 124.242 200.074 124.179 C 194.621 124.136,191.844 124.234,191.080 124.498 M206.625 135.161 L 206.711 142.253 213.882 142.339 L 221.054 142.424 221.186 147.687 C 221.259 150.582,221.238 153.776,221.140 154.785 L 220.962 156.619 213.836 156.619 L 206.711 156.619 206.625 163.716 L 206.539 170.813 199.362 170.813 L 192.185 170.813 192.185 163.796 L 192.185 156.778 185.008 156.619 L 177.831 156.459 177.745 149.368 L 177.659 142.277 184.922 142.191 L 192.185 142.105 192.128 135.259 C 192.097 131.494,192.143 128.297,192.231 128.156 C 192.318 128.014,195.573 127.937,199.464 127.984 L 206.539 128.070 206.625 135.161 M147.049 149.112 C 147.049 153.105,168.946 178.759,181.659 189.659 C 196.310 202.222,201.445 202.397,215.768 190.825 C 226.585 182.086,250.399 154.523,250.399 150.742 C 250.399 149.733,249.839 150.302,247.860 153.326 C 236.981 169.941,215.967 191.553,205.877 196.504 C 200.514 199.136,196.283 198.838,190.912 195.452 C 179.013 187.950,159.014 166.759,149.123 151.173 C 148.015 149.427,147.049 148.467,147.049 149.112 M159.410 152.179 C 158.769 152.552,158.670 153.758,159.234 154.322 C 160.393 155.481,162.211 153.980,161.425 152.512 C 161.034 151.781,160.301 151.660,159.410 152.179 M237.773 152.266 C 237.242 153.648,237.755 154.545,239.075 154.545 L 240.351 154.545 240.351 153.270 C 240.351 151.883,238.236 151.060,237.773 152.266 M163.955 158.615 C 163.955 160.731,186.921 184.681,188.194 183.894 C 188.804 183.517,188.508 183.153,185.407 180.467 C 178.866 174.802,168.464 163.763,165.716 159.569 C 164.863 158.267,163.955 157.775,163.955 158.615 M231.611 161.483 C 226.168 168.208,217.499 177.079,211.350 182.216 C 210.699 182.760,210.484 183.162,210.635 183.554 C 211.278 185.232,234.769 160.976,234.769 158.634 C 234.769 157.775,234.193 158.294,231.611 161.483 M131.419 169.831 C 131.419 172.422,152.402 196.663,162.440 205.671 C 163.766 206.861,163.955 207.189,163.955 208.300 C 163.955 210.587,165.830 211.561,167.581 210.184 C 169.445 208.718,168.101 205.842,165.683 206.124 C 162.785 206.463,142.193 184.302,133.723 171.731 C 132.423 169.800,131.419 168.973,131.419 169.831 M204.581 187.363 C 203.953 187.906,203.770 188.258,203.995 188.487 C 204.405 188.904,206.486 187.718,206.303 187.171 C 206.079 186.499,205.504 186.563,204.581 187.363 M255.343 202.123 C 240.298 205.334,233.574 222.957,242.579 235.576 C 244.878 238.798,249.822 242.537,252.711 243.237 L 253.589 243.450 253.589 241.401 L 253.589 239.353 252.392 238.784 C 236.893 231.416,240.246 208.688,257.257 205.806 C 276.410 202.562,285.590 228.441,268.764 238.244 L 266.555 239.532 266.636 241.535 C 266.736 243.980,266.573 243.846,268.452 243.018 C 283.540 236.365,286.198 216.639,273.437 206.011 C 268.991 202.308,261.759 200.754,255.343 202.123 M256.559 216.292 C 251.145 218.972,251.365 226.959,256.925 229.548 C 264.452 233.053,271.341 223.581,265.507 217.747 C 263.306 215.546,259.362 214.904,256.559 216.292 M228.144 329.825 C 228.144 330.439,228.210 330.690,228.290 330.383 C 228.370 330.076,228.370 329.573,228.290 329.266 C 228.210 328.959,228.144 329.211,228.144 329.825 " stroke="none" fill="#65b451" fill-rule="evenodd"></path><path id="path4" d="M217.346 80.064 C 217.346 82.081,217.397 82.907,217.461 81.898 C 217.524 80.889,217.524 79.238,217.461 78.230 C 217.397 77.221,217.346 78.046,217.346 80.064 M181.297 79.904 C 181.298 81.659,181.351 82.336,181.416 81.409 C 181.480 80.482,181.480 79.046,181.414 78.219 C 181.349 77.392,181.296 78.150,181.297 79.904 M232.962 79.426 C 232.962 80.742,233.018 81.280,233.087 80.622 C 233.156 79.964,233.156 78.888,233.087 78.230 C 233.018 77.572,232.962 78.110,232.962 79.426 M126.141 80.144 L 124.880 81.499 126.236 80.238 C 127.497 79.066,127.738 78.788,127.497 78.788 C 127.445 78.788,126.835 79.398,126.141 80.144 M126.148 81.738 L 123.923 84.051 126.236 81.827 C 128.384 79.761,128.694 79.426,128.460 79.426 C 128.412 79.426,127.371 80.467,126.148 81.738 M230.867 99.434 C 231.440 99.505,232.302 99.503,232.781 99.430 C 233.260 99.358,232.791 99.300,231.738 99.301 C 230.686 99.303,230.294 99.363,230.867 99.434 M165.479 100.393 C 166.229 100.461,167.378 100.460,168.031 100.391 C 168.684 100.323,168.070 100.268,166.667 100.269 C 165.263 100.270,164.729 100.326,165.479 100.393 M148.789 107.576 L 147.528 108.931 148.884 107.671 C 150.144 106.498,150.386 106.220,150.144 106.220 C 150.092 106.220,149.482 106.830,148.789 107.576 M207.162 111.404 L 205.901 112.759 207.257 111.498 C 208.518 110.326,208.759 110.048,208.518 110.048 C 208.466 110.048,207.856 110.658,207.162 111.404 M204.929 112.041 L 203.668 113.397 205.024 112.136 C 206.285 110.964,206.526 110.686,206.285 110.686 C 206.233 110.686,205.623 111.296,204.929 112.041 M193.142 112.919 C 193.827 113.620,194.460 114.195,194.547 114.195 C 194.635 114.195,194.146 113.620,193.461 112.919 C 192.776 112.217,192.143 111.643,192.056 111.643 C 191.968 111.643,192.457 112.217,193.142 112.919 M110.788 116.746 C 110.788 117.887,110.846 118.353,110.917 117.783 C 110.987 117.213,110.987 116.280,110.917 115.710 C 110.846 115.140,110.788 115.606,110.788 116.746 M237.480 119.298 C 238.165 120.000,238.798 120.574,238.885 120.574 C 238.973 120.574,238.484 120.000,237.799 119.298 C 237.114 118.596,236.481 118.022,236.394 118.022 C 236.306 118.022,236.795 118.596,237.480 119.298 M236.204 122.169 C 236.889 122.871,237.522 123.445,237.610 123.445 C 237.697 123.445,237.208 122.871,236.523 122.169 C 235.838 121.467,235.205 120.893,235.118 120.893 C 235.030 120.893,235.519 121.467,236.204 122.169 M192.112 129.506 C 192.112 130.295,192.175 130.618,192.251 130.223 C 192.327 129.829,192.327 129.183,192.251 128.788 C 192.175 128.393,192.112 128.716,192.112 129.506 M206.516 135.247 C 206.516 139.195,206.562 140.809,206.618 138.836 C 206.674 136.862,206.674 133.632,206.618 131.659 C 206.562 129.685,206.516 131.300,206.516 135.247 M192.142 135.726 C 192.143 137.480,192.196 138.157,192.261 137.230 C 192.326 136.303,192.325 134.868,192.260 134.040 C 192.194 133.213,192.141 133.971,192.142 135.726 M179.682 138.675 C 181.401 138.732,184.129 138.732,185.742 138.674 C 187.356 138.617,185.949 138.570,182.616 138.570 C 179.282 138.570,177.962 138.618,179.682 138.675 M213.142 138.674 C 214.668 138.733,217.252 138.733,218.883 138.675 C 220.515 138.617,219.266 138.569,216.108 138.569 C 212.951 138.568,211.616 138.616,213.142 138.674 M173.963 144.976 C 173.964 146.906,174.016 147.654,174.080 146.639 C 174.143 145.624,174.143 144.045,174.078 143.130 C 174.014 142.216,173.962 143.046,173.963 144.976 M221.157 151.994 C 221.159 153.222,221.216 153.685,221.285 153.023 C 221.354 152.361,221.353 151.357,221.283 150.790 C 221.212 150.224,221.156 150.766,221.157 151.994 M173.959 153.110 C 173.959 154.777,174.012 155.459,174.078 154.625 C 174.144 153.792,174.144 152.428,174.078 151.595 C 174.012 150.762,173.959 151.443,173.959 153.110 M181.419 156.538 C 183.393 156.594,186.623 156.594,188.596 156.538 C 190.570 156.482,188.955 156.436,185.008 156.436 C 181.061 156.436,179.446 156.482,181.419 156.538 M206.523 156.706 C 206.437 156.930,206.408 160.196,206.459 163.963 L 206.552 170.813 206.626 163.722 L 206.699 156.631 213.955 156.539 L 221.212 156.447 213.945 156.373 C 208.297 156.316,206.644 156.390,206.523 156.706 M192.148 160.766 C 192.148 162.959,192.199 163.856,192.262 162.759 C 192.324 161.663,192.324 159.868,192.262 158.772 C 192.199 157.675,192.148 158.573,192.148 160.766 M192.141 167.783 C 192.141 169.450,192.194 170.132,192.260 169.298 C 192.326 168.465,192.326 167.101,192.260 166.268 C 192.194 165.435,192.141 166.116,192.141 167.783 M221.521 172.648 L 219.617 174.641 221.611 172.737 C 222.707 171.690,223.604 170.793,223.604 170.744 C 223.604 170.508,223.290 170.796,221.521 172.648 M177.671 173.365 C 178.267 173.979,178.825 174.482,178.913 174.482 C 179.001 174.482,178.586 173.979,177.990 173.365 C 177.395 172.751,176.837 172.249,176.749 172.249 C 176.661 172.249,177.076 172.751,177.671 173.365 M167.145 174.262 C 167.145 174.317,167.612 174.784,168.182 175.299 L 169.219 176.236 168.282 175.199 C 167.408 174.233,167.145 174.016,167.145 174.262 M229.167 176.475 L 228.230 177.512 229.266 176.575 C 229.837 176.060,230.303 175.593,230.303 175.538 C 230.303 175.292,230.040 175.509,229.167 176.475 M169.219 177.990 C 169.904 178.692,170.536 179.266,170.624 179.266 C 170.712 179.266,170.223 178.692,169.537 177.990 C 168.852 177.289,168.220 176.715,168.132 176.715 C 168.044 176.715,168.533 177.289,169.219 177.990 M228.218 179.027 L 226.635 180.702 228.309 179.119 C 229.230 178.248,229.984 177.495,229.984 177.444 C 229.984 177.206,229.689 177.471,228.218 179.027 M222.322 184.928 L 219.617 187.719 222.408 185.015 C 225.001 182.503,225.345 182.137,225.113 182.137 C 225.065 182.137,223.809 183.393,222.322 184.928 M175.425 184.131 C 176.207 184.964,176.889 185.646,176.940 185.646 C 177.180 185.646,176.927 185.360,175.518 184.038 L 174.003 182.616 175.425 184.131 M148.006 191.228 C 148.602 191.842,149.160 192.344,149.248 192.344 C 149.336 192.344,148.921 191.842,148.325 191.228 C 147.730 190.614,147.172 190.112,147.084 190.112 C 146.996 190.112,147.411 190.614,148.006 191.228 M153.748 195.953 C 153.748 196.008,154.215 196.474,154.785 196.990 L 155.821 197.927 154.885 196.890 C 154.011 195.924,153.748 195.707,153.748 195.953 M198.967 198.312 C 199.364 198.388,199.938 198.385,200.243 198.305 C 200.548 198.225,200.223 198.163,199.522 198.167 C 198.820 198.170,198.570 198.235,198.967 198.312 M259.569 205.653 C 260.140 205.724,261.073 205.724,261.643 205.653 C 262.213 205.583,261.746 205.525,260.606 205.525 C 259.466 205.525,258.999 205.583,259.569 205.653 M259.414 215.540 C 259.899 215.613,260.617 215.611,261.009 215.536 C 261.401 215.460,261.005 215.400,260.128 215.402 C 259.250 215.405,258.929 215.467,259.414 215.540 M252.393 223.126 C 252.397 223.828,252.462 224.077,252.538 223.680 C 252.614 223.284,252.612 222.710,252.532 222.405 C 252.452 222.100,252.390 222.424,252.393 223.126 M267.698 222.967 C 267.698 223.581,267.763 223.832,267.843 223.525 C 267.924 223.218,267.924 222.715,267.843 222.408 C 267.763 222.101,267.698 222.352,267.698 222.967 M238.352 224.242 C 238.352 224.856,238.417 225.108,238.497 224.801 C 238.578 224.494,238.578 223.991,238.497 223.684 C 238.417 223.377,238.352 223.628,238.352 224.242 M246.252 234.231 C 246.252 234.285,246.719 234.752,247.289 235.267 L 248.325 236.204 247.388 235.167 C 246.515 234.201,246.252 233.984,246.252 234.231 M271.915 235.805 L 270.654 237.161 272.010 235.900 C 273.270 234.728,273.512 234.450,273.270 234.450 C 273.218 234.450,272.608 235.060,271.915 235.805 M266.450 241.786 C 266.450 242.927,266.508 243.393,266.578 242.823 C 266.649 242.253,266.649 241.320,266.578 240.750 C 266.508 240.179,266.450 240.646,266.450 241.786 M226.549 326.316 C 226.549 326.930,226.615 327.181,226.695 326.874 C 226.775 326.567,226.775 326.065,226.695 325.758 C 226.615 325.451,226.549 325.702,226.549 326.316 M228.144 326.316 C 228.144 326.930,228.210 327.181,228.290 326.874 C 228.370 326.567,228.370 326.065,228.290 325.758 C 228.210 325.451,228.144 325.702,228.144 326.316 M224.681 327.741 C 224.582 327.998,224.575 328.393,224.666 328.618 C 224.756 328.843,224.841 328.716,224.855 328.336 C 224.869 327.956,225.060 327.572,225.279 327.484 C 225.591 327.358,225.589 327.318,225.269 327.298 C 225.044 327.284,224.780 327.483,224.681 327.741 M245.755 327.685 C 245.668 327.912,245.641 330.316,245.694 333.028 L 245.791 337.959 245.862 332.797 C 245.932 327.724,245.945 327.634,246.651 327.498 L 247.368 327.360 246.641 327.316 C 246.240 327.292,245.842 327.458,245.755 327.685 M253.388 334.609 C 253.388 336.451,253.440 337.205,253.505 336.284 C 253.569 335.363,253.569 333.856,253.505 332.935 C 253.440 332.014,253.388 332.767,253.388 334.609 M171.088 334.609 C 171.088 336.276,171.142 336.958,171.207 336.124 C 171.273 335.291,171.273 333.927,171.207 333.094 C 171.142 332.261,171.088 332.943,171.088 334.609 " stroke="none" fill="#80bc6f" fill-rule="evenodd"></path></g></svg>